<svg width="1273" height="411" viewBox="0 0 1273 411" fill="none" xmlns="http://www.w3.org/2000/svg">
<g clip-path="url(#clip0_47_2780)">
<path d="M39.4629 153.413H127.267V186.248H39.4629V153.413ZM42.5894 228.464H141.857V262.34H0.641602V79.9264H138.47V113.803H42.5894V228.464ZM159.808 262.34V79.9264H194.722L302.327 211.265H285.391V79.9264H327.079V262.34H292.426L184.56 131.002H201.496V262.34H159.808ZM354.597 262.34V79.9264H396.805V262.34H354.597ZM511.737 265.468C497.668 265.468 484.555 263.21 472.395 258.692C460.41 254.002 449.988 247.399 441.129 238.887C432.271 230.375 425.323 220.385 420.286 208.919C415.423 197.453 412.99 184.857 412.99 171.133C412.99 157.409 415.423 144.814 420.286 133.348C425.323 121.882 432.271 111.892 441.129 103.38C450.163 94.8671 460.67 88.3523 472.655 83.8353C484.64 79.1446 497.755 76.7993 511.998 76.7993C527.805 76.7993 542.048 79.5789 554.727 85.1382C567.581 90.5237 578.351 98.5153 587.035 109.113L559.938 134.129C553.685 127.007 546.738 121.708 539.094 118.233C531.453 114.585 523.115 112.761 514.082 112.761C505.571 112.761 497.755 114.151 490.633 116.93C483.513 119.71 477.345 123.706 472.134 128.918C466.923 134.129 462.842 140.297 459.889 147.42C457.11 154.543 455.72 162.447 455.72 171.133C455.72 179.82 457.11 187.724 459.889 194.847C462.842 201.971 466.923 208.137 472.134 213.349C477.345 218.561 483.513 222.557 490.633 225.336C497.755 228.116 505.571 229.506 514.082 229.506C523.115 229.506 531.453 227.769 539.094 224.294C546.738 220.646 553.685 215.173 559.938 207.877L587.035 232.894C578.351 243.49 567.581 251.569 554.727 257.129C542.048 262.688 527.718 265.468 511.737 265.468ZM832.524 262.34V79.9264H867.437L945.08 208.659H926.581L1002.92 79.9264H1037.57L1038.09 262.34H998.492L998.231 140.644H1005.53L944.559 243.057H925.539L863.269 140.644H872.127V262.34H832.524ZM1065.73 262.34V79.9264H1107.94V262.34H1065.73ZM1195.52 265.468C1180.93 265.468 1166.94 263.556 1153.57 259.735C1140.19 255.738 1129.43 250.614 1121.26 244.36L1135.59 212.567C1143.41 218.127 1152.61 222.731 1163.21 226.379C1173.98 229.854 1184.83 231.591 1195.78 231.591C1204.11 231.591 1210.8 230.809 1215.84 229.245C1221.05 227.509 1224.87 225.163 1227.3 222.209C1229.74 219.255 1230.95 215.868 1230.95 212.046C1230.95 207.182 1229.04 203.359 1225.22 200.58C1221.4 197.626 1216.36 195.281 1210.11 193.544C1203.85 191.633 1196.91 189.896 1189.26 188.332C1181.79 186.596 1174.24 184.511 1166.6 182.078C1159.13 179.646 1152.27 176.518 1146.01 172.697C1139.76 168.875 1134.64 163.837 1130.64 157.583C1126.82 151.328 1124.91 143.337 1124.91 133.608C1124.91 123.185 1127.69 113.716 1133.25 105.204C1138.98 96.5173 1147.49 89.6552 1158.78 84.6171C1170.24 79.4052 1184.57 76.7993 1201.77 76.7993C1213.23 76.7993 1224.52 78.1892 1235.64 80.9688C1246.76 83.5747 1256.57 87.5705 1265.08 92.956L1252.05 125.009C1243.54 120.144 1235.03 116.583 1226.52 114.324C1218.01 111.892 1209.67 110.676 1201.51 110.676C1193.34 110.676 1186.66 111.632 1181.45 113.543C1176.24 115.454 1172.5 117.973 1170.24 121.1C1167.99 124.053 1166.86 127.528 1166.86 131.524C1166.86 136.214 1168.77 140.036 1172.59 142.99C1176.41 145.769 1181.45 148.028 1187.7 149.765C1193.95 151.502 1200.81 153.24 1208.28 154.977C1215.93 156.714 1223.48 158.712 1230.95 160.97C1238.59 163.229 1245.54 166.269 1251.79 170.091C1258.05 173.913 1263.09 178.951 1266.91 185.205C1270.9 191.46 1272.9 199.365 1272.9 208.919C1272.9 219.17 1270.03 228.551 1264.3 237.063C1258.57 245.575 1249.97 252.438 1238.51 257.65C1227.22 262.862 1212.89 265.468 1195.52 265.468Z" fill="white"/>
<mask id="mask0_47_2780" style="mask-type:luminance" maskUnits="userSpaceOnUse" x="510" y="0" width="351" height="312">
<path d="M860.097 126.963L600.912 0L510.599 184.432L769.784 311.396L860.097 126.963Z" fill="white"/>
</mask>
<g mask="url(#mask0_47_2780)">
<path fill-rule="evenodd" clip-rule="evenodd" d="M799.57 97.3675C800.027 97.7691 800.48 98.171 800.934 98.5729L800.94 98.7642C802.805 100.826 803.045 100.607 804.182 103.093C804.393 103.684 804.605 104.275 804.816 104.866C805.058 105.802 804.96 105.746 805.269 106.656C805.204 107.059 805.14 107.46 805.075 107.862L805.208 108.044C805.182 108.732 805.171 108.65 804.921 109.292C804.921 109.292 804.571 110.985 804.54 111.132C803.211 114.774 803.162 114.648 801.298 118.05C800.429 118.93 800.557 118.9 799.934 119.881C799.542 120.356 799.151 120.83 798.759 121.304C798.29 121.766 797.824 122.228 797.355 122.689L796.561 123.711C796.161 124.179 795.76 124.647 795.36 125.115L795.148 125.106C793.74 126.473 793.823 126.426 792.345 127.73C791.479 128.517 791.682 128.636 790.801 129.371C790.366 129.95 790.24 129.718 789.759 130.342C788.961 130.961 789.007 130.926 788.192 131.576L787.954 131.573C786.914 132.411 786.989 132.443 786.898 132.51C786.19 132.992 786.29 133.04 785.601 133.453C783.051 135.321 783.153 135.418 782.927 135.572C782.812 135.64 782.766 135.795 782.651 135.864C781.773 136.388 781.913 136.407 781.037 137.053C780.337 137.564 778.555 138.675 778.337 138.811C777.803 139.115 777.844 139.086 777.803 139.115C777.442 139.374 777.595 139.433 777.246 139.684C777.059 139.771 776.873 139.858 776.688 139.945C775.807 140.551 775.885 140.496 775.06 141.11C773.876 141.678 774.011 141.735 772.862 142.523C772.12 142.855 772.196 142.847 771.475 143.349C771.285 143.431 771.094 143.513 770.903 143.596C770.036 144.138 769.136 144.647 768.98 144.735C768.489 144.972 768.593 145.038 768.128 145.245C767.85 145.428 767.571 145.611 767.292 145.793C766.507 146.151 766.577 146.156 765.915 146.618C765.727 146.714 765.54 146.809 765.353 146.906C765.082 147.093 764.809 147.281 764.538 147.469C762.944 148.412 763.038 148.465 762.903 148.545C756.346 152.419 766.806 143.716 767.221 143.371C767.478 143.163 767.733 142.954 767.988 142.746C768.422 142.129 770.538 140.648 770.772 140.483C771.437 139.861 771.323 139.905 771.813 139.16C772.528 138.752 772.493 138.889 772.545 138.852L773.36 137.886C774.198 136.712 775.149 136.316 775.338 136.236L776.137 135.244C776.382 134.902 777.858 132.84 779.886 131.566C780.213 131.224 780.54 130.883 780.867 130.541C782.561 128.909 782.36 128.798 784.048 127.104C784.452 126.64 784.856 126.176 785.261 125.712C785.314 125.657 785.267 125.711 789.467 120.276C789.824 119.778 790.18 119.28 790.537 118.782C791.819 116.348 791.831 116.438 792.905 113.967C792.999 113.506 793.093 113.045 793.19 112.584C793.242 111.787 793.56 106.94 786.074 105.595C785.609 105.518 785.146 105.441 784.681 105.363C773.79 104.305 773.848 104.895 764.425 105.83C763.017 105.97 753.763 106.888 747.01 108.85C745.888 108.975 745.968 108.918 744.824 109.286C744.214 109.471 743.702 109.625 743.606 109.654C742.735 109.714 742.829 109.655 742.027 109.917C741.079 110.203 741.131 110.186 740.201 110.48C739.341 110.541 739.43 110.481 738.627 110.744C737.667 111.038 737.723 111.021 736.803 111.314C735.945 111.38 736.034 111.319 735.23 111.588C734.376 111.847 734.439 111.725 733.661 111.945C733.376 112.08 733.091 112.216 732.806 112.351C731.944 112.256 732.035 112.356 731.232 112.635C730.624 112.827 730.115 112.986 730.017 113.016C729.699 113.072 729.38 113.127 729.062 113.182C728.557 113.327 728.685 113.442 728.207 113.596C727.029 113.706 727.114 113.68 726.034 114.075C725.929 114.126 726.027 114.087 724.219 114.665C723.9 114.718 723.582 114.77 723.264 114.824C723.061 114.885 722.86 114.946 722.657 115.007C722.454 115.066 722.251 115.125 722.05 115.184C721.846 115.243 721.645 115.301 721.44 115.36C720.485 115.644 720.573 115.594 719.641 115.95C719.317 116.098 719.333 116.039 715.421 117.334C715.103 117.384 714.783 117.433 714.465 117.483C714.264 117.55 714.064 117.617 713.863 117.684C713.664 117.752 713.464 117.821 713.263 117.888C713.062 117.951 712.861 118.014 712.658 118.076C712.456 118.135 712.254 118.194 712.052 118.254C711.849 118.319 711.648 118.383 711.447 118.448C711.247 118.517 711.046 118.585 710.847 118.653C710.647 118.721 710.446 118.79 710.247 118.859C709.348 119.157 709.399 119.121 708.449 119.455C708.245 119.522 708.04 119.589 707.836 119.656C705.529 120.329 705.568 120.377 697.064 123.387C696.865 123.457 696.664 123.528 696.464 123.599C696.269 123.675 696.071 123.751 695.873 123.827C695.676 123.904 695.48 123.98 695.284 124.057C695.086 124.131 694.889 124.205 694.691 124.28C694.597 124.318 694.104 124.516 693.513 124.745C693.224 124.891 692.939 125.036 692.651 125.182C692.556 125.217 692.054 125.401 691.451 125.618C690.53 125.903 690.62 125.889 689.676 126.271C689.482 126.352 689.286 126.433 689.092 126.514C688.3 126.852 688.387 126.83 687.658 127.228C687.015 127.462 687.097 127.432 686.46 127.668C685.534 127.981 685.637 127.971 684.705 128.368C684.511 128.451 684.317 128.534 684.123 128.616C683.838 128.772 683.551 128.927 683.266 129.083C683.066 129.158 682.867 129.233 682.668 129.308C682.057 129.515 682.115 129.493 681.493 129.757C680.721 130.108 680.812 130.079 680.066 130.504C679.868 130.58 679.667 130.655 679.468 130.73C678.864 130.938 678.913 130.918 678.3 131.19C678.207 131.231 677.723 131.449 677.14 131.692L676.857 131.931C675.869 132.258 675.977 132.252 675.115 132.646C674.837 132.817 674.559 132.988 674.28 133.159C673.652 133.408 673.732 133.376 673.099 133.631C672.293 133.946 672.363 133.954 671.679 134.381C671.48 134.458 671.281 134.534 671.081 134.61C669.981 135.003 670.069 134.998 669.088 135.612C668.888 135.691 668.691 135.77 668.493 135.849C667.596 136.199 667.684 136.19 666.767 136.6L666.484 136.843C665.356 137.246 665.44 137.253 664.496 137.858C664.3 137.938 664.103 138.017 663.905 138.097C663.004 138.441 663.108 138.424 662.184 138.857L661.901 139.104C660.983 139.457 661.077 139.46 660.187 139.875L659.902 140.113C658.986 140.451 659.079 140.459 658.189 140.886L657.904 141.131C657.015 141.459 657.105 141.459 656.19 141.9L655.908 142.154C654.987 142.513 655.074 142.516 654.204 142.937L653.92 143.183C653.03 143.528 653.125 143.528 652.214 143.966L651.892 144.175C651.677 144.27 650.045 144.993 652.757 146.975C653.85 147.775 653.478 148.097 654.665 148.821C655.073 149.319 654.882 149.331 655.309 149.816C655.961 150.572 655.938 150.498 663.784 158.966C667.03 161.72 671.083 166.404 671.676 167.089L671.681 167.296C676.81 171.625 684.549 180.219 685.611 181.396L685.623 181.589C689.253 185.226 689.34 185.053 689.636 185.382L689.643 185.576C690.218 186.054 690.141 186.04 690.631 186.594C690.855 186.848 690.857 186.802 693.679 189.548L694.677 190.353L694.684 190.547C701.46 197.313 701.719 196.946 708.584 203.676C709.988 204.856 709.875 204.96 709.999 205.058L711.025 205.843L711.032 206.026L712.059 206.999C712.746 207.566 713.433 208.13 714.12 208.697C713.657 210.852 713.643 210.74 712.964 212.748C712.204 211.976 712.289 211.973 711.476 211.237C695.443 196.706 652.542 153.659 647.255 147.895C647.027 147.681 646.8 147.467 646.571 147.253C646.377 147.276 646.181 147.299 645.987 147.322C645.702 147.5 645.417 147.678 645.132 147.856C644.226 148.207 644.306 148.207 643.437 148.652L643.154 148.905C642.402 149.223 642.477 149.216 641.757 149.698C641.565 149.784 641.37 149.87 641.176 149.956C640.986 150.039 640.793 150.121 640.603 150.203C640.491 150.268 639.744 150.697 639.195 150.993C638.917 151.176 638.637 151.358 638.358 151.541C637.567 151.869 637.635 151.877 636.948 152.334C636.172 152.646 636.282 152.632 635.568 153.15C634.953 153.412 635.028 153.38 634.411 153.65C634.133 153.833 633.855 154.016 633.577 154.199C632.767 154.55 632.855 154.548 632.173 155C631.379 155.327 631.447 155.34 630.767 155.802C629.964 156.126 630.08 156.116 629.387 156.619C627.586 157.438 627.637 157.42 626.009 158.496C625.818 158.578 625.627 158.659 625.435 158.742C625.325 158.807 624.584 159.242 624.035 159.543C623.76 159.732 623.485 159.922 623.209 160.112C622.408 160.468 622.496 160.463 621.812 160.922C621.002 161.283 621.088 161.282 620.417 161.74C619.651 162.092 619.742 162.072 619.021 162.551C618.827 162.631 618.635 162.71 618.442 162.789C618.29 162.882 617.369 163.446 616.522 163.936C616.148 164.121 616.204 164.111 614.84 165.008C614.651 165.092 614.461 165.177 614.272 165.261C613.399 165.818 613.459 165.777 612.637 166.389C611.887 166.738 611.99 166.704 611.226 167.206C610.449 167.535 610.518 167.547 609.839 168.035C609.248 168.296 609.299 168.271 608.729 168.583L608.449 168.857C608.258 168.939 608.068 169.02 607.877 169.102C607.725 169.198 606.784 169.8 605.966 170.263L605.681 170.521C605.401 170.702 605.121 170.884 604.842 171.066C604.07 171.399 604.139 171.41 603.462 171.905C602.874 172.17 602.925 172.145 602.359 172.464L602.077 172.736C601.888 172.821 601.699 172.905 601.51 172.99C600.629 173.559 600.692 173.516 599.865 174.129C599.085 174.476 599.153 174.485 598.484 174.965C597.746 175.32 597.809 175.315 597.109 175.814C596.835 176.002 596.56 176.191 596.286 176.38C595.539 176.732 595.611 176.728 594.916 177.235C594.645 177.43 594.374 177.624 594.103 177.82C593.337 178.203 593.428 178.189 592.752 178.698C592.482 178.892 592.211 179.086 591.942 179.278C591.622 179.514 588.17 182.061 587.924 182.187C580.419 186.076 596.525 174.002 597.03 173.372C597.959 172.97 597.777 172.819 598.592 172.161C599.813 171.26 599.771 171.302 601 170.317C601.808 169.696 601.76 169.733 602.574 169.095C605.417 166.949 605.342 167.006 608.171 164.845C608.928 164.483 608.776 164.35 609.496 163.963C611.593 162.509 611.992 162.028 612.167 161.817C612.74 161.579 612.663 161.626 613.224 161.244C613.861 160.837 613.688 160.703 614.302 160.347C615.178 159.839 615.041 159.805 615.916 159.155C616.019 159.078 616.717 158.554 617.259 158.274C619.434 156.846 632.709 147.514 634.049 146.572C634.605 146.298 634.549 146.331 635.13 145.987C641.734 142.34 641.4 141.556 640.973 141.123C638.69 138.804 627.047 126.983 615.001 109.804C606.608 97.8359 567.905 51.0394 580.186 44.7623C580.324 44.7044 581.333 44.2859 581.94 44.0869C582.923 43.8522 582.837 43.9309 583.744 43.6577C584.776 43.6131 584.722 43.7987 585.729 43.6351C586.39 43.8651 586.315 43.8646 586.955 43.8983L587.119 43.7805C588.516 43.9648 589.947 44.3772 590.188 44.4473L591.973 44.9234C600.255 47.7976 600.173 47.8268 607.868 52.2023C608.9 52.7866 609.93 53.3715 610.96 53.9558C612.235 54.921 612.188 54.847 613.62 55.6771C614.583 56.3768 614.452 56.4192 615.541 56.7333C626.059 63.0817 608.232 54.4668 603.236 53.4986L601.983 53.1319C593.002 51.764 592.435 54.7003 591.739 56.3821C591.194 57.1513 591.304 57.1124 591.157 58.0306C591.157 58.2085 591.157 59.2715 591.356 60.245C591.389 60.422 591.709 62.1828 591.795 62.4523C592.554 64.9485 592.533 64.8457 593.458 67.2573C593.948 68.6136 594.026 68.4679 594.635 69.8774C595.633 71.8993 595.639 71.8282 596.676 73.8713C597.055 74.7902 599.648 79.0247 599.919 79.4659C600.105 79.7482 601.164 81.3558 602.171 83.0436C604.158 86.0129 604.046 86.036 604.223 86.2878C606.581 89.7285 606.804 89.8887 607.115 90.1129C607.286 90.528 608.377 93.1701 610.355 94.6934C610.801 95.7031 614.302 100.754 615.473 101.625C616.505 103.596 618.142 105.323 618.173 105.358C618.285 105.442 618.397 105.525 618.511 105.608C628.277 118.351 628.695 117.941 638.742 130.494L638.749 130.714C639.151 131.207 639.085 131.154 639.686 131.532C639.933 131.988 639.849 131.981 640.33 132.298C640.767 132.845 645.184 138.371 646.134 138.844C647.046 138.43 646.889 138.264 647.793 137.822C648.358 137.555 648.302 137.586 648.888 137.252C649.321 137.032 649.255 137.045 650.561 136.162C650.75 136.076 650.937 135.989 651.126 135.904C652.013 135.35 651.96 135.385 652.77 134.787C652.96 134.697 653.151 134.606 653.34 134.515C653.494 134.418 655.144 133.526 655.302 133.44L655.576 133.163C656.367 132.833 656.298 132.822 656.977 132.353C657.559 132.107 657.505 132.134 658.099 131.824C659.002 131.283 658.923 131.334 659.754 130.73C660.364 130.459 660.291 130.493 660.903 130.214C661.182 130.034 661.462 129.854 661.742 129.674C662.538 129.328 662.45 129.337 663.151 128.884C663.742 128.647 663.693 128.671 664.286 128.368C664.398 128.303 665.141 127.871 665.697 127.584C665.977 127.405 666.259 127.227 666.54 127.048C667.416 126.706 667.329 126.707 668.235 126.249L668.521 126.004C669.292 125.687 669.228 125.681 669.922 125.222C670.116 125.138 670.312 125.054 670.508 124.97C671.323 124.632 671.235 124.634 671.915 124.2C672.111 124.119 672.307 124.037 672.505 123.955C674.47 123.16 674.336 123.059 676.224 122.182L676.507 121.939C677.765 121.482 677.642 121.437 678.81 120.938L679.097 120.707C680.291 120.275 680.171 120.239 681.405 119.711L681.692 119.485C682.949 119.054 682.844 118.996 684.016 118.52C684.215 118.449 684.413 118.378 684.612 118.307C685.406 117.973 685.31 117.919 686.05 117.591C686.244 117.508 686.438 117.425 686.632 117.341C686.725 117.302 687.212 117.093 687.796 116.854L688.083 116.633C689.047 116.336 688.961 116.339 689.849 115.97C690.043 115.888 690.238 115.805 690.432 115.722C690.627 115.644 690.823 115.566 691.019 115.488C691.112 115.45 691.605 115.249 692.196 115.024C692.397 114.957 692.596 114.888 692.798 114.82C693.256 114.632 693.125 114.583 693.665 114.371C695.204 113.887 695.093 113.845 696.629 113.288C696.826 113.211 697.024 113.134 697.22 113.057C697.417 112.98 697.613 112.902 697.809 112.825C698.007 112.752 698.206 112.68 698.404 112.608C699.003 112.4 699.507 112.229 699.603 112.196C699.802 112.128 700.002 112.06 700.203 111.992C700.402 111.923 700.602 111.853 700.801 111.784C700.897 111.75 701.399 111.575 701.999 111.37C702.198 111.302 702.399 111.234 702.599 111.167C702.8 111.099 702.999 111.031 703.198 110.963C703.399 110.894 703.599 110.825 703.798 110.755C703.893 110.722 704.396 110.548 704.996 110.343C705.195 110.274 705.396 110.206 705.596 110.138C705.795 110.07 705.994 110.001 706.195 109.932C706.395 109.863 706.594 109.793 706.794 109.724C707.392 109.518 707.897 109.347 707.993 109.315C708.192 109.246 708.392 109.179 708.593 109.111C708.792 109.041 708.992 108.972 709.191 108.902C709.39 108.833 709.59 108.763 709.789 108.693C709.885 108.66 710.389 108.488 710.99 108.29L711.237 108.041C711.56 108.006 711.884 107.971 712.206 107.935C712.84 107.727 712.763 107.753 713.41 107.532C713.61 107.464 713.809 107.396 714.008 107.329C714.209 107.26 714.409 107.193 714.61 107.124C715.701 106.744 718.532 106.076 721.216 104.939C721.716 104.771 721.68 104.883 722.166 104.738C722.449 104.596 722.732 104.454 723.016 104.313L723.36 104.319C723.561 104.251 723.76 104.183 723.96 104.115C724.247 103.978 724.533 103.841 724.818 103.704C725.138 103.657 725.458 103.609 725.778 103.562C725.979 103.496 726.181 103.431 726.382 103.366C726.584 103.308 726.787 103.249 726.988 103.19C727.191 103.128 727.394 103.066 727.595 103.003C729.59 102.365 729.562 102.535 731.565 101.876C731.846 101.727 732.128 101.579 732.407 101.43C732.61 101.363 732.811 101.297 733.012 101.23C733.334 101.185 733.654 101.141 733.974 101.095C734.177 101.036 734.38 100.976 734.581 100.917C735.973 100.519 735.891 100.577 736.994 100.179C738.005 100.008 737.916 100.038 738.804 99.5791C739.126 99.5331 739.447 99.4871 739.771 99.4412C739.974 99.3853 740.177 99.3295 740.379 99.2733C741.345 99.0166 741.282 99.0689 742.184 98.727C742.506 98.6649 742.827 98.6026 743.147 98.5402C743.665 98.3933 743.532 98.2806 744.003 98.1262C745.15 98.0438 745.08 98.0821 746.181 97.6876C746.503 97.6267 746.825 97.5657 747.148 97.505L747.398 97.292C747.724 97.2626 748.049 97.233 748.374 97.2037C749.843 96.8462 749.825 96.9182 749.95 96.885C750.231 96.7465 750.511 96.6078 750.792 96.4694C751.121 96.442 751.448 96.4145 751.777 96.3869C752.469 96.2188 752.371 96.2444 752.976 96.0369C753.303 95.9885 753.63 95.9406 753.957 95.8921C754.905 95.6795 754.844 95.7342 755.776 95.4124C756.103 95.3671 756.43 95.3213 756.759 95.2754C757.721 95.0899 757.675 95.1445 758.577 94.8155C758.78 94.7429 758.985 94.6705 759.188 94.5981C760.064 94.7459 759.997 94.6569 760.774 94.395L761.157 94.4365C761.825 94.2913 761.762 94.3062 762.368 94.1318C762.573 94.071 762.779 94.0097 762.984 93.9485C764.252 93.9045 764.238 93.9436 764.344 93.9226C765.285 93.7025 765.241 93.7556 766.166 93.5048C766.373 93.4434 766.579 93.3817 766.784 93.3207C767.654 93.3369 767.584 93.3985 768.37 93.1603L768.767 93.2337C768.941 93.2033 770.807 92.8808 770.965 92.868L771.356 92.9219C772.052 92.8226 771.954 92.8381 772.563 92.6868C772.96 92.76 773.845 92.6888 773.955 92.6797C774.612 92.6027 774.534 92.6165 775.163 92.464C775.864 92.6202 775.765 92.6045 776.562 92.5146C776.672 92.5051 776.62 92.5648 777.959 92.5102C778.158 92.4841 778.36 92.4579 778.559 92.4324C779.225 92.3804 779.152 92.3883 779.76 92.2587C780.169 92.3967 782.311 92.6839 784.156 92.4035C785.212 92.8061 788.781 93.0532 790.021 93.3808C790.766 93.5701 791.513 93.7591 792.258 93.9485C796.063 95.4502 795.902 95.5605 799.57 97.3675Z" fill="white"/>
<path fill-rule="evenodd" clip-rule="evenodd" d="M720.651 182.9C719.99 184.504 719.114 210.213 719.034 212.59C719.055 212.795 719.076 213.001 719.097 213.206L719.162 213.463C718.49 215.705 718.181 215.702 718.838 217.917L718.41 217.865C718.132 218.54 718.17 218.458 718.238 219.219C718.051 220.257 716.308 229.887 716.39 232.281L716.519 232.444C715.864 233.604 715.734 233.546 715.829 235.499L715.958 235.659C714.858 236.871 715.22 236.956 714.946 238.095C714.968 238.436 714.991 238.777 715.014 239.118C715 239.303 714.986 239.489 714.972 239.674C714.409 240.393 714.46 240.361 714.456 241.325C714.022 242.268 714.008 242.182 714.049 243.141L713.879 243.539C712.767 246.074 712.842 246.04 712.325 248.769C711.172 250.295 711.419 250.341 711.107 252.197C709.724 255.018 708.343 257.839 706.962 260.66C706.456 261.24 705.953 261.821 705.447 262.4C703.807 264.64 703.707 264.542 703.207 265.742L703.001 265.747C702.483 266.172 702.436 266.064 702.219 266.739C701.278 267.334 701.25 267.286 701.196 267.363L700.593 267.578C700.259 267.912 699.923 268.248 699.589 268.582C699.308 268.766 699.026 268.948 698.745 269.132C698.182 269.392 698.224 269.366 698.182 269.392C697.998 269.511 698.162 269.553 697.93 269.703C696.928 269.866 696.989 269.856 696.15 270.361C695.286 270.461 695.373 270.419 694.55 270.639C692.903 270.989 692.924 270.679 691.339 271.059C690.865 270.994 690.393 270.928 689.919 270.863C670.898 267.195 667.089 250.546 664.561 246.334C664.491 246.026 664.423 245.719 664.353 245.411C664.285 245.21 664.215 245.01 664.146 244.809C663.994 244.526 663.842 244.244 663.69 243.961C663.638 243.644 663.585 243.328 663.533 243.011C663.464 242.81 663.394 242.611 663.326 242.411C663.258 242.21 663.19 242.011 663.123 241.811C663.055 241.608 662.987 241.406 662.921 241.203C662.282 238.88 661.373 236.194 661.226 235.762C661.106 235.36 660.983 234.957 660.862 234.555C660.745 233.418 660.775 233.472 660.397 232.36C660.366 232.03 660.334 231.699 660.303 231.368C658.08 220.877 658.334 220.933 657.337 210.322C655.853 194.548 659.301 213.017 659.35 213.3C659.226 213.68 659.292 213.589 659.418 214.309C659.457 214.509 659.495 214.708 659.532 214.907C659.324 215.607 659.282 215.668 659.904 216.12L659.819 216.511C659.829 216.838 659.839 217.164 659.848 217.487C660.027 217.758 660.201 218.029 660.38 218.3C659.789 219.441 660.058 219.47 660.782 220.504C659.946 222.202 660.883 222.624 661.051 223.1C661.24 223.367 661.427 223.636 661.614 223.904C660.656 225.716 662.057 227.057 662.275 227.699C662.345 227.899 662.414 228.098 662.483 228.297C662.415 231.4 664.94 237.297 665.746 237.89C665.815 238.091 665.883 238.291 665.951 238.49C666.227 239.3 665.839 240.536 667.36 241.689C669.121 247.913 676.698 256.193 680.722 258.015C681.589 258.459 681.549 258.386 682.467 258.563L683.266 258.958C683.75 259.47 683.675 259.47 684.402 259.74C685.413 260.048 686.426 260.355 687.438 260.665C690.362 261.032 690.491 261.819 692.457 260.529C694.908 258.776 695.017 259.035 695.176 258.834C695.664 258.405 695.706 258.507 695.963 257.833C696.103 257.709 696.244 257.583 696.384 257.459C696.865 256.989 696.909 257.08 697.155 256.417C697.423 256.025 697.692 255.633 697.96 255.241C698.222 254.892 698.482 254.542 698.745 254.192C700.31 251.833 700.107 251.821 703.013 245.766C703.233 245.033 703.452 244.3 703.672 243.567L704.786 241.147C704.944 240.547 705.099 239.949 705.257 239.351L705.967 237.731C706.124 237.131 706.281 236.533 706.44 235.935C707.811 231.547 707.656 231.596 709 227.133C709.389 226.531 709.285 226.55 709.364 225.882C710.833 221.235 710.681 221.289 711.725 216.482C712.115 215.871 712.012 215.892 712.087 215.235C712.193 214.82 712.356 214.88 712.713 212.657C713.391 210.647 713.405 210.761 713.869 208.604C713.937 208.141 714.003 207.677 714.07 207.214C714.119 206.74 714.168 206.266 714.217 205.792C714.825 202.952 714.848 203.058 715.199 200.206C715.619 199.627 715.507 199.659 715.563 198.959C720.024 178.26 718.431 177.842 719.517 176.364C721.382 173.83 720.491 182.29 720.651 182.9Z" fill="white"/>
<path fill-rule="evenodd" clip-rule="evenodd" d="M758.938 197.117C759.139 197.388 759.338 197.659 759.537 197.932C760.405 199.134 760.35 199.132 760.433 199.228C762.26 201.22 762.234 201.128 762.384 201.299C762.716 201.561 763.049 201.824 763.381 202.086C763.743 202.535 767.202 206.82 768.2 207.473C768.324 207.693 769.111 209.223 770.419 210.061C770.667 210.526 770.587 210.512 771.049 210.838C771.685 212.011 776.263 217.529 777.417 219.32C778.048 220.38 777.866 220.436 778.903 221.205C779.668 222.933 781.944 225.893 782.855 227.507L783.167 227.769C783.726 229.161 783.833 229.013 784.497 230.284C784.857 231.015 784.905 230.912 785.295 231.689C785.643 232.418 785.685 232.295 786.076 233.1L786.361 233.376C786.648 234.286 786.679 234.179 787.12 235.08L787.4 235.356C787.701 236.325 787.732 236.21 788.126 237.079L788.409 237.355C788.746 238.588 788.848 238.453 789.344 239.674L789.619 239.956C789.668 241.002 790.491 242.119 790.995 243.455C791.943 246.264 792.649 248.011 793.657 251.24C794.081 252.667 793.905 252.616 794.291 254.035C794.985 257.562 794.756 257.52 794.326 261.022C792.877 263.958 792.812 263.864 792.716 264.126C792.453 264.32 792.191 264.516 791.929 264.712C791.42 264.661 791.476 264.659 791.018 264.857C790.416 265.053 789.914 265.203 789.818 265.231C783.254 266.559 770.947 258.876 769.48 257.959L768.315 257.298C766.2 255.913 766.201 255.957 766.032 255.82L764.881 255.142C762.159 253.298 741.745 239.475 732.318 230.074C732.084 229.845 731.85 229.618 731.615 229.389C729.365 227.423 729.386 227.502 727.086 225.494C726.855 225.265 726.623 225.034 726.392 224.803C719.541 218.227 719.398 218.514 718.838 217.919C718.181 215.703 718.488 215.705 719.162 213.463C719.254 213.54 719.347 213.615 719.441 213.69L721.882 215.84L723.589 217.345L725.004 218.533L726.081 219.444C727.286 220.467 735.338 227.304 741.432 231.881L743.249 233.266L745.767 235.174L747.619 236.507C751.413 239.134 751.373 239.162 751.703 239.387L752.085 239.616L754.319 241.173L754.701 241.399C755.827 242.142 756.953 242.887 758.079 243.634C759.359 244.41 760.641 245.187 761.921 245.965C767.945 249.125 767.74 249.414 774.065 251.733C776.459 252.615 776.378 252.725 778.903 253.052L779.514 252.952C780.196 253.227 780.145 253.276 780.918 253.146C781.64 253.375 781.587 253.256 782.334 253.197C783.511 252.947 783.595 253.199 784.398 252.256C785.008 251.978 788.276 250.481 785.964 242.84C785.903 242.523 785.842 242.207 785.782 241.89C785.713 241.691 785.648 241.491 785.578 241.292C785.51 241.091 785.441 240.891 785.373 240.69C785.309 240.491 785.24 240.29 785.172 240.09C785.032 239.802 784.892 239.515 784.753 239.228C784.662 239.053 784.347 238.133 784.312 238.035C784.109 237.439 783.455 235.872 783.376 235.685C783.214 235.402 783.053 235.12 782.888 234.835C781.371 232.019 773.07 216.613 760.779 201.537C760.538 201.24 745.228 180.852 758.938 197.117Z" fill="white"/>
<path fill-rule="evenodd" clip-rule="evenodd" d="M762.383 245.993C769.498 249.391 769.454 249.363 770.066 249.662C771.928 250.575 771.809 250.612 773.656 251.518L774.065 251.733C767.74 249.414 767.945 249.125 761.921 245.965L762.383 245.993Z" fill="white"/>
<path fill-rule="evenodd" clip-rule="evenodd" d="M707.584 119.564C705.931 120.669 705.909 120.437 696.582 123.6L696.812 123.295C705.318 120.285 705.277 120.237 707.584 119.564Z" fill="white"/>
<path fill-rule="evenodd" clip-rule="evenodd" d="M720.966 104.847C718.282 105.984 715.449 106.652 714.358 107.032L713.986 106.923C717.233 105.797 717.689 104.772 720.966 104.847Z" fill="white"/>
<path fill-rule="evenodd" clip-rule="evenodd" d="M804.29 111.04C804.687 112.065 802.868 116.537 800.855 118.37L801.048 117.958C802.912 114.556 802.961 114.682 804.29 111.04Z" fill="white"/>
<path fill-rule="evenodd" clip-rule="evenodd" d="M731.549 101.563L731.314 101.784C729.312 102.443 729.34 102.274 727.345 102.911L726.971 102.802C729.286 102.001 729.121 101.413 731.549 101.563Z" fill="white"/>
<path fill-rule="evenodd" clip-rule="evenodd" d="M591.575 62.3756L591.902 62.5946C592.682 64.7262 592.647 64.6644 593.336 66.8198L593.238 67.1806C592.313 64.7692 592.334 64.872 591.575 62.3756Z" fill="white"/>
<path fill-rule="evenodd" clip-rule="evenodd" d="M712.324 248.771C712.331 250.759 711.378 251.541 711.107 252.197C711.419 250.341 711.172 250.297 712.324 248.771Z" fill="white"/>
<path fill-rule="evenodd" clip-rule="evenodd" d="M794.898 125.014C794.756 125.347 794.111 126.866 791.908 128.413C791.969 128.154 792.032 127.896 792.095 127.638C793.571 126.334 793.489 126.381 794.898 125.014Z" fill="white"/>
<path fill-rule="evenodd" clip-rule="evenodd" d="M608.099 52.0973C609.771 52.9497 609.916 52.6419 611.129 54.0533L610.71 53.8639C609.68 53.2796 608.648 52.6947 607.618 52.1104L608.099 52.0973Z" fill="white"/>
<path fill-rule="evenodd" clip-rule="evenodd" d="M675.972 122.09C674.084 122.967 674.218 123.067 672.253 123.863C674.017 122.706 673.897 122.58 675.972 122.09Z" fill="white"/>
<path fill-rule="evenodd" clip-rule="evenodd" d="M706.961 260.66C706.381 261.66 706.904 261.991 705.202 263.327C705.284 263.017 705.367 262.709 705.449 262.402C705.952 261.821 706.458 261.24 706.961 260.66Z" fill="white"/>
<path fill-rule="evenodd" clip-rule="evenodd" d="M785.349 133.36C784.464 135.519 783.99 135.197 782.675 135.48C782.901 135.326 782.799 135.229 785.349 133.36Z" fill="white"/>
<path fill-rule="evenodd" clip-rule="evenodd" d="M696.611 112.891L696.379 113.196C694.842 113.752 694.954 113.795 693.413 114.279C694.877 113.227 694.908 113.479 696.611 112.891Z" fill="white"/>
<path fill-rule="evenodd" clip-rule="evenodd" d="M788.409 237.355C790.175 238.13 789.304 238.887 789.346 239.674C788.849 238.452 788.748 238.588 788.409 237.355Z" fill="white"/>
<path fill-rule="evenodd" clip-rule="evenodd" d="M610.71 53.8638L611.13 54.0532C612.602 54.7358 612.74 54.4923 613.786 55.7684L613.37 55.5851C611.936 54.7552 611.983 54.8292 610.71 53.8638Z" fill="white"/>
<path fill-rule="evenodd" clip-rule="evenodd" d="M783.167 227.769C784.504 228.455 784.583 229.901 784.592 229.931L784.497 230.284C783.834 229.013 783.726 229.161 783.167 227.769Z" fill="white"/>
<path fill-rule="evenodd" clip-rule="evenodd" d="M736.742 100.087C735.639 100.485 735.721 100.427 734.331 100.825L733.964 100.733C735.399 100.24 735.295 100.111 736.742 100.087Z" fill="white"/>
<path fill-rule="evenodd" clip-rule="evenodd" d="M716.519 232.446C716.131 234.011 716.397 234.023 715.827 235.499C715.734 233.546 715.864 233.604 716.519 232.446Z" fill="white"/>
<path fill-rule="evenodd" clip-rule="evenodd" d="M701.128 141.064C699.542 140.655 699.636 140.697 698.119 140.15C699.122 140.455 700.126 140.759 701.128 141.064Z" fill="white"/>
<path fill-rule="evenodd" clip-rule="evenodd" d="M784.398 252.258C783.595 253.199 783.511 252.947 782.336 253.197L782.563 252.905C783.462 252.529 783.399 252.552 784.398 252.258Z" fill="white"/>
<path fill-rule="evenodd" clip-rule="evenodd" d="M715.788 237.068C715.53 237.752 715.271 238.436 715.014 239.118C714.991 238.777 714.967 238.436 714.944 238.095C715.225 237.752 715.507 237.411 715.788 237.068Z" fill="white"/>
<path fill-rule="evenodd" clip-rule="evenodd" d="M749.931 96.5865L749.698 96.7927C749.574 96.8261 749.593 96.7541 748.124 97.1114L747.75 97.004C748.81 96.6304 748.707 96.5636 749.931 96.5865Z" fill="white"/>
<path fill-rule="evenodd" clip-rule="evenodd" d="M715.958 235.659C715.666 236.907 715.679 236.806 715.666 236.907C715.658 236.974 715.797 237 715.789 237.068C715.507 237.409 715.226 237.752 714.946 238.095C715.22 236.956 714.858 236.871 715.958 235.659Z" fill="white"/>
<path fill-rule="evenodd" clip-rule="evenodd" d="M770.713 92.7758C770.555 92.7886 768.69 93.1111 768.515 93.1415C769.524 92.4192 769.529 92.6027 770.713 92.7758Z" fill="white"/>
<path fill-rule="evenodd" clip-rule="evenodd" d="M786.361 233.375C787.417 233.817 787.087 234.027 787.12 235.08C786.68 234.179 786.648 234.286 786.361 233.375Z" fill="white"/>
<path fill-rule="evenodd" clip-rule="evenodd" d="M660.38 218.301C660.675 219.453 660.39 219.427 660.782 220.506C660.058 219.471 659.79 219.441 660.38 218.301Z" fill="white"/>
<path fill-rule="evenodd" clip-rule="evenodd" d="M689.825 115.558L689.598 115.878C688.709 116.247 688.795 116.244 687.832 116.541C688.739 115.872 688.68 115.95 689.825 115.558Z" fill="white"/>
<path fill-rule="evenodd" clip-rule="evenodd" d="M741.934 98.6348C741.032 98.9767 741.095 98.9244 740.129 99.1811L739.757 99.0778C740.846 98.6972 740.755 98.6533 741.934 98.6348Z" fill="white"/>
<path fill-rule="evenodd" clip-rule="evenodd" d="M787.4 235.356C788.61 235.905 788.096 236.217 788.126 237.079C787.732 236.21 787.701 236.325 787.4 235.356Z" fill="white"/>
<path fill-rule="evenodd" clip-rule="evenodd" d="M585.113 43.3381L585.509 43.5584C584.503 43.7218 584.556 43.5362 583.526 43.5808L583.127 43.329C584.117 43.348 584.954 43.3395 585.113 43.3381Z" fill="white"/>
<path fill-rule="evenodd" clip-rule="evenodd" d="M804.564 104.773L804.869 104.995C805.131 105.618 805.098 105.538 805.357 106.161L805.019 106.564C804.708 105.654 804.808 105.71 804.564 104.773Z" fill="white"/>
<path fill-rule="evenodd" clip-rule="evenodd" d="M683.439 118.405L683.764 118.428C682.594 118.904 682.697 118.961 681.44 119.393C682.365 118.741 682.3 118.815 683.439 118.405Z" fill="white"/>
<path fill-rule="evenodd" clip-rule="evenodd" d="M745.93 97.5956C744.828 97.9901 744.898 97.9518 743.751 98.0342C744.874 97.6577 744.777 97.633 745.93 97.5956Z" fill="white"/>
<path fill-rule="evenodd" clip-rule="evenodd" d="M676.607 131.84C675.682 132.517 675.7 132.444 674.621 132.838L674.865 132.554C675.728 132.16 675.619 132.166 676.607 131.84Z" fill="white"/>
<path fill-rule="evenodd" clip-rule="evenodd" d="M755.524 95.3201C754.592 95.642 754.653 95.5873 753.706 95.8L753.338 95.744C754.482 95.3673 754.389 95.3369 755.524 95.3201Z" fill="white"/>
<path fill-rule="evenodd" clip-rule="evenodd" d="M691.201 125.526C690.217 126.173 690.262 126.099 689.192 126.484L689.426 126.179C690.369 125.797 690.278 125.811 691.201 125.526Z" fill="white"/>
<path fill-rule="evenodd" clip-rule="evenodd" d="M785.405 231.325C786.054 232.108 786.057 232.054 786.076 233.1C785.685 232.295 785.643 232.418 785.296 231.688L785.405 231.325Z" fill="white"/>
<path fill-rule="evenodd" clip-rule="evenodd" d="M678.56 120.846C677.39 121.345 677.514 121.39 676.255 121.847C677.348 121.071 677.299 121.151 678.56 120.846Z" fill="white"/>
<path fill-rule="evenodd" clip-rule="evenodd" d="M681.155 119.619C679.921 120.147 680.041 120.183 678.845 120.615C679.945 119.844 679.896 119.925 681.155 119.619Z" fill="white"/>
<path fill-rule="evenodd" clip-rule="evenodd" d="M721.19 115.267L721.559 115.36C720.436 115.739 720.515 115.752 719.391 115.858C720.321 115.502 720.233 115.552 721.19 115.267Z" fill="white"/>
<path fill-rule="evenodd" clip-rule="evenodd" d="M758.325 94.7233C757.425 95.0525 757.47 94.9977 756.507 95.1833C757.383 94.6628 757.358 94.6915 758.325 94.7233Z" fill="white"/>
<path fill-rule="evenodd" clip-rule="evenodd" d="M618.192 162.697C618.047 162.946 617.904 163.195 617.759 163.445C617.016 163.674 617.084 163.647 616.272 163.844C617.119 163.353 618.039 162.79 618.192 162.697Z" fill="white"/>
<path fill-rule="evenodd" clip-rule="evenodd" d="M709.997 118.767L710.364 118.866C709.297 119.236 709.408 119.255 708.199 119.363C709.147 119.029 709.096 119.065 709.997 118.767Z" fill="white"/>
<path fill-rule="evenodd" clip-rule="evenodd" d="M727.957 113.504C726.868 113.865 726.947 113.889 725.784 113.983C726.863 113.588 726.779 113.614 727.957 113.504Z" fill="white"/>
<path fill-rule="evenodd" clip-rule="evenodd" d="M770.653 143.504C770.507 143.747 770.36 143.992 770.215 144.236C769.379 144.501 769.482 144.459 768.73 144.643C768.886 144.555 769.784 144.046 770.653 143.504Z" fill="white"/>
<path fill-rule="evenodd" clip-rule="evenodd" d="M784.592 229.931C785.13 230.602 785.171 230.522 785.405 231.325L785.296 231.689C784.906 230.912 784.857 231.015 784.499 230.284L784.592 229.931Z" fill="white"/>
<path fill-rule="evenodd" clip-rule="evenodd" d="M666.233 136.751C665.313 137.41 665.339 137.341 664.246 137.766C665.19 137.161 665.105 137.154 666.233 136.751Z" fill="white"/>
<path fill-rule="evenodd" clip-rule="evenodd" d="M686.21 127.576C685.214 128.241 685.285 128.155 684.205 128.543L684.453 128.276C685.387 127.879 685.283 127.89 686.21 127.576Z" fill="white"/>
<path fill-rule="evenodd" clip-rule="evenodd" d="M607.625 169.01C607.48 169.255 607.333 169.501 607.186 169.747C606.422 169.992 606.506 169.96 605.716 170.171C606.534 169.708 607.475 169.106 607.625 169.01Z" fill="white"/>
<path fill-rule="evenodd" clip-rule="evenodd" d="M583.126 43.3289L583.526 43.5807C582.617 43.8539 582.702 43.7754 581.72 44.0101L581.959 43.7533C582.554 43.5504 583.035 43.3649 583.126 43.3289Z" fill="white"/>
<path fill-rule="evenodd" clip-rule="evenodd" d="M670.831 134.518C669.85 135.187 669.89 135.112 668.836 135.52C669.819 134.906 669.729 134.911 670.831 134.518Z" fill="white"/>
<path fill-rule="evenodd" clip-rule="evenodd" d="M625.185 158.65C625.035 158.886 624.883 159.122 624.732 159.358C624.636 159.39 624.146 159.55 623.545 159.767L623.784 159.451C624.334 159.151 625.075 158.715 625.185 158.65Z" fill="white"/>
<path fill-rule="evenodd" clip-rule="evenodd" d="M655.052 133.349C654.893 133.434 653.242 134.326 653.09 134.424C653.969 133.667 653.851 133.569 655.052 133.349Z" fill="white"/>
<path fill-rule="evenodd" clip-rule="evenodd" d="M746.758 108.759C745.623 109.098 745.699 109.117 744.574 109.195C745.718 108.827 745.636 108.884 746.758 108.759Z" fill="white"/>
<path fill-rule="evenodd" clip-rule="evenodd" d="M776.532 92.1588L776.31 92.4226C775.514 92.5125 775.612 92.5284 774.911 92.3722L774.518 92.1642C774.678 92.1644 775.509 92.1663 776.532 92.1588Z" fill="white"/>
<path fill-rule="evenodd" clip-rule="evenodd" d="M640.353 150.111C640.195 150.341 640.041 150.571 639.886 150.799C639.79 150.831 639.303 150.994 638.7 151.206L638.943 150.901C639.494 150.605 640.241 150.176 640.353 150.111Z" fill="white"/>
<path fill-rule="evenodd" clip-rule="evenodd" d="M792.095 127.638C792.032 127.896 791.971 128.154 791.908 128.413C791.455 128.702 791.004 128.991 790.551 129.279C791.432 128.545 791.229 128.425 792.095 127.638Z" fill="white"/>
<path fill-rule="evenodd" clip-rule="evenodd" d="M768.119 93.0681C767.334 93.3063 767.403 93.2447 766.532 93.2285C767.364 92.9319 767.357 92.687 768.119 93.0681Z" fill="white"/>
<path fill-rule="evenodd" clip-rule="evenodd" d="M581.959 43.7533L581.72 44.01C581.113 44.2089 580.104 44.6276 579.966 44.6855C580.943 44.0473 580.886 44.1094 581.959 43.7533Z" fill="white"/>
<path fill-rule="evenodd" clip-rule="evenodd" d="M665.69 127.19L665.447 127.492C664.891 127.779 664.148 128.211 664.036 128.276C664.194 128.05 664.351 127.824 664.508 127.598C664.603 127.566 665.089 127.404 665.69 127.19Z" fill="white"/>
<path fill-rule="evenodd" clip-rule="evenodd" d="M598.342 172.069C597.525 172.727 597.707 172.878 596.779 173.28C597.3 172.877 597.821 172.473 598.342 172.069Z" fill="white"/>
<path fill-rule="evenodd" clip-rule="evenodd" d="M714.456 241.325C714.629 242.322 714.421 242.231 714.048 243.141C714.008 242.184 714.022 242.268 714.456 241.325Z" fill="white"/>
<path fill-rule="evenodd" clip-rule="evenodd" d="M638.499 130.621C639.433 130.788 639.382 130.854 639.9 131.577L639.435 131.44C638.833 131.061 638.899 131.115 638.499 130.621Z" fill="white"/>
<path fill-rule="evenodd" clip-rule="evenodd" d="M760.522 94.3029C759.745 94.5648 759.812 94.6538 758.936 94.5058C759.747 94.2069 759.708 94.2877 760.522 94.3029Z" fill="white"/>
<path fill-rule="evenodd" clip-rule="evenodd" d="M703.672 243.567C703.452 244.3 703.231 245.033 703.013 245.766C703.102 244.589 703.2 244.688 703.672 243.567Z" fill="white"/>
<path fill-rule="evenodd" clip-rule="evenodd" d="M601.26 172.898C601.106 173.132 600.952 173.366 600.799 173.6C600.702 173.632 600.211 173.8 599.615 174.037C600.442 173.424 600.377 173.467 601.26 172.898Z" fill="white"/>
<path fill-rule="evenodd" clip-rule="evenodd" d="M801.048 117.958L800.856 118.37C800.466 118.843 800.074 119.316 799.684 119.789C800.307 118.808 800.177 118.838 801.048 117.958Z" fill="white"/>
<path fill-rule="evenodd" clip-rule="evenodd" d="M664.508 127.598C664.351 127.824 664.193 128.05 664.036 128.276C663.443 128.578 663.49 128.555 662.899 128.792C663.031 128.699 663.704 128.218 664.508 127.598Z" fill="white"/>
<path fill-rule="evenodd" clip-rule="evenodd" d="M697.93 269.703C696.991 270.114 697.069 270.05 696.149 270.361C696.989 269.856 696.928 269.868 697.93 269.703Z" fill="white"/>
<path fill-rule="evenodd" clip-rule="evenodd" d="M658.33 131.068C658.169 131.289 658.009 131.511 657.849 131.732C657.253 132.042 657.307 132.015 656.725 132.261C656.854 132.167 657.521 131.679 658.33 131.068Z" fill="white"/>
<path fill-rule="evenodd" clip-rule="evenodd" d="M614.02 165.169C613.866 165.401 613.712 165.633 613.559 165.866C613.464 165.899 612.978 166.066 612.385 166.297C613.209 165.685 613.148 165.726 614.02 165.169Z" fill="white"/>
<path fill-rule="evenodd" clip-rule="evenodd" d="M657.654 141.039C656.87 141.592 656.921 141.589 655.94 141.809C656.853 141.367 656.765 141.368 657.654 141.039Z" fill="white"/>
<path fill-rule="evenodd" clip-rule="evenodd" d="M659.651 140.021C658.846 140.596 658.892 140.583 657.937 140.794C658.829 140.367 658.734 140.359 659.651 140.021Z" fill="white"/>
<path fill-rule="evenodd" clip-rule="evenodd" d="M792.007 93.8565C791.263 93.6671 790.516 93.478 789.771 93.2888C791.294 92.7237 791.378 93.502 792.007 93.8565Z" fill="white"/>
<path fill-rule="evenodd" clip-rule="evenodd" d="M752.724 95.9449C752.121 96.1524 752.219 96.1268 751.525 96.2949L751.149 96.1755C751.941 95.8947 751.897 95.9614 752.724 95.9449Z" fill="white"/>
<path fill-rule="evenodd" clip-rule="evenodd" d="M644.88 147.764C644.1 148.326 644.16 148.318 643.186 148.56C644.056 148.115 643.974 148.115 644.88 147.764Z" fill="white"/>
<path fill-rule="evenodd" clip-rule="evenodd" d="M659.502 130.638C658.671 131.242 658.75 131.191 657.85 131.732C658.009 131.511 658.17 131.29 658.33 131.069C658.425 131.035 658.909 130.867 659.502 130.638Z" fill="white"/>
<path fill-rule="evenodd" clip-rule="evenodd" d="M776.438 139.853L775.982 140.559C775.885 140.593 775.394 140.763 774.81 141.018C775.635 140.404 775.557 140.459 776.438 139.853Z" fill="white"/>
<path fill-rule="evenodd" clip-rule="evenodd" d="M667.984 126.157C667.077 126.615 667.166 126.614 666.29 126.956C667.068 126.394 667.009 126.402 667.984 126.157Z" fill="white"/>
<path fill-rule="evenodd" clip-rule="evenodd" d="M655.659 142.062C654.859 142.633 654.903 142.622 653.954 142.846C654.823 142.424 654.735 142.421 655.659 142.062Z" fill="white"/>
<path fill-rule="evenodd" clip-rule="evenodd" d="M652.52 134.695C651.708 135.293 651.761 135.258 650.876 135.812C651.035 135.587 651.192 135.362 651.352 135.138C651.446 135.104 651.93 134.934 652.52 134.695Z" fill="white"/>
<path fill-rule="evenodd" clip-rule="evenodd" d="M797.103 122.597C797.023 122.858 796.942 123.119 796.862 123.38C796.533 123.719 796.204 124.057 795.875 124.396L796.311 123.619L797.103 122.597Z" fill="white"/>
<path fill-rule="evenodd" clip-rule="evenodd" d="M805.355 106.162C805.189 107.047 805.288 107.027 804.823 107.77C804.888 107.368 804.953 106.967 805.017 106.564L805.355 106.162Z" fill="white"/>
<path fill-rule="evenodd" clip-rule="evenodd" d="M765.916 93.4128C764.989 93.6636 765.033 93.6105 764.092 93.8305L764.318 93.644C765.126 93.3994 765.031 93.4534 765.916 93.4128Z" fill="white"/>
<path fill-rule="evenodd" clip-rule="evenodd" d="M661.649 139.011C660.855 139.56 660.906 139.554 659.936 139.783C660.827 139.368 660.733 139.365 661.649 139.011Z" fill="white"/>
<path fill-rule="evenodd" clip-rule="evenodd" d="M653.668 143.091C652.867 143.65 652.915 143.64 651.963 143.874C652.874 143.436 652.78 143.436 653.668 143.091Z" fill="white"/>
<path fill-rule="evenodd" clip-rule="evenodd" d="M764.318 93.644L764.092 93.8305C763.986 93.8518 764 93.8125 762.732 93.8564C763.529 93.5938 763.484 93.6547 764.318 93.644Z" fill="white"/>
<path fill-rule="evenodd" clip-rule="evenodd" d="M585.114 43.3381C585.985 43.4658 585.948 43.3238 586.735 43.8217C586.095 43.788 586.172 43.7883 585.509 43.5583L585.114 43.3381Z" fill="white"/>
<path fill-rule="evenodd" clip-rule="evenodd" d="M668.242 135.757C667.432 136.303 667.479 136.294 666.516 136.507C667.432 136.097 667.344 136.106 668.242 135.757Z" fill="white"/>
<path fill-rule="evenodd" clip-rule="evenodd" d="M663.655 138.005C662.856 138.536 662.917 138.528 661.934 138.765C662.857 138.332 662.752 138.349 663.655 138.005Z" fill="white"/>
<path fill-rule="evenodd" clip-rule="evenodd" d="M776.532 92.1584C777.142 91.8871 777.158 91.9482 777.707 92.4179C776.368 92.4725 776.422 92.4129 776.31 92.4223L776.532 92.1584Z" fill="white"/>
<path fill-rule="evenodd" clip-rule="evenodd" d="M789.507 130.25C788.986 130.661 788.463 131.073 787.942 131.484C788.755 130.834 788.711 130.869 789.507 130.25Z" fill="white"/>
<path fill-rule="evenodd" clip-rule="evenodd" d="M679.217 130.638C678.502 131.119 678.607 131.112 677.812 131.396L678.048 131.098C678.663 130.825 678.614 130.846 679.217 130.638Z" fill="white"/>
<path fill-rule="evenodd" clip-rule="evenodd" d="M682.416 129.216C681.703 129.689 681.806 129.684 681.005 129.967L681.241 129.665C681.863 129.4 681.808 129.423 682.416 129.216Z" fill="white"/>
<path fill-rule="evenodd" clip-rule="evenodd" d="M636.698 152.242C636.051 152.724 636.147 152.737 635.318 153.058C636.03 152.539 635.922 152.554 636.698 152.242Z" fill="white"/>
<path fill-rule="evenodd" clip-rule="evenodd" d="M712.788 107.334L713.159 107.44C712.512 107.66 712.59 107.635 711.956 107.843L711.585 107.745C712.221 107.526 712.138 107.555 712.788 107.334Z" fill="white"/>
<path fill-rule="evenodd" clip-rule="evenodd" d="M787.704 131.481C787.523 132.332 787.439 132.281 786.646 132.418C786.739 132.351 786.662 132.319 787.704 131.481Z" fill="white"/>
<path fill-rule="evenodd" clip-rule="evenodd" d="M602.322 169.003C601.509 169.641 601.556 169.604 600.748 170.225C601.273 169.818 601.797 169.41 602.322 169.003Z" fill="white"/>
<path fill-rule="evenodd" clip-rule="evenodd" d="M656.725 132.261C656.047 132.73 656.117 132.742 655.326 133.071C655.989 132.596 655.903 132.584 656.725 132.261Z" fill="white"/>
<path fill-rule="evenodd" clip-rule="evenodd" d="M630.517 155.71C629.852 156.199 629.952 156.203 629.135 156.526C629.828 156.024 629.712 156.034 630.517 155.71Z" fill="white"/>
<path fill-rule="evenodd" clip-rule="evenodd" d="M739.951 110.388C739.15 110.65 739.237 110.592 738.377 110.652C739.18 110.389 739.09 110.449 739.951 110.388Z" fill="white"/>
<path fill-rule="evenodd" clip-rule="evenodd" d="M604.59 170.974L604.38 171.35C604.286 171.385 603.799 171.564 603.212 171.813C603.887 171.317 603.819 171.306 604.59 170.974Z" fill="white"/>
<path fill-rule="evenodd" clip-rule="evenodd" d="M609.246 163.871C608.526 164.258 608.676 164.391 607.921 164.753C608.547 164.151 608.398 164.031 609.246 163.871Z" fill="white"/>
<path fill-rule="evenodd" clip-rule="evenodd" d="M610.974 167.115C610.278 167.627 610.381 167.616 609.589 167.943C610.266 167.456 610.197 167.443 610.974 167.115Z" fill="white"/>
<path fill-rule="evenodd" clip-rule="evenodd" d="M732.554 112.259C731.75 112.519 731.818 112.466 730.982 112.543C731.785 112.264 731.692 112.164 732.554 112.259Z" fill="white"/>
<path fill-rule="evenodd" clip-rule="evenodd" d="M736.552 111.222C735.724 111.491 735.782 111.431 734.979 111.496C735.784 111.227 735.695 111.288 736.552 111.222Z" fill="white"/>
<path fill-rule="evenodd" clip-rule="evenodd" d="M631.922 154.908C631.202 155.412 631.309 155.397 630.517 155.71C631.197 155.248 631.129 155.235 631.922 154.908Z" fill="white"/>
<path fill-rule="evenodd" clip-rule="evenodd" d="M743.354 109.562C742.558 109.81 742.653 109.758 741.775 109.825C742.578 109.562 742.483 109.622 743.354 109.562Z" fill="white"/>
<path fill-rule="evenodd" clip-rule="evenodd" d="M638.108 151.449C637.406 151.94 637.508 151.935 636.698 152.242C637.385 151.785 637.316 151.777 638.108 151.449Z" fill="white"/>
<path fill-rule="evenodd" clip-rule="evenodd" d="M714.972 239.674C714.8 240.225 714.629 240.776 714.458 241.327C714.461 240.363 714.409 240.393 714.972 239.674Z" fill="white"/>
<path fill-rule="evenodd" clip-rule="evenodd" d="M639.435 131.44L639.901 131.577C640.094 131.85 640.288 132.123 640.482 132.396L640.078 132.206C639.597 131.889 639.681 131.895 639.435 131.44Z" fill="white"/>
<path fill-rule="evenodd" clip-rule="evenodd" d="M780.521 252.91L780.918 253.146C780.147 253.276 780.196 253.227 779.514 252.95C779.848 252.936 780.183 252.922 780.521 252.91Z" fill="white"/>
<path fill-rule="evenodd" clip-rule="evenodd" d="M696.148 270.361C695.319 270.644 695.412 270.576 694.55 270.639C695.373 270.419 695.286 270.461 696.148 270.361Z" fill="white"/>
<path fill-rule="evenodd" clip-rule="evenodd" d="M613.37 55.5852L613.788 55.7683C614.288 56.0595 614.789 56.3504 615.29 56.6412C614.2 56.3273 614.331 56.285 613.37 55.5852Z" fill="white"/>
<path fill-rule="evenodd" clip-rule="evenodd" d="M599.615 174.036C598.891 174.561 598.994 174.537 598.233 174.873C598.903 174.393 598.835 174.384 599.615 174.036Z" fill="white"/>
<path fill-rule="evenodd" clip-rule="evenodd" d="M770.419 210.061L770.856 210.222C771.052 210.493 771.248 210.764 771.444 211.034L771.048 210.838C770.587 210.513 770.667 210.526 770.419 210.061Z" fill="white"/>
<path fill-rule="evenodd" clip-rule="evenodd" d="M772.61 142.431C771.947 142.906 772.028 142.909 771.225 143.257C771.944 142.755 771.869 142.762 772.61 142.431Z" fill="white"/>
<path fill-rule="evenodd" clip-rule="evenodd" d="M662.9 128.792C662.2 129.245 662.286 129.236 661.49 129.582C662.172 129.115 662.094 129.108 662.9 128.792Z" fill="white"/>
<path fill-rule="evenodd" clip-rule="evenodd" d="M633.325 154.107C632.611 154.602 632.713 154.588 631.922 154.908C632.603 154.456 632.517 154.458 633.325 154.107Z" fill="white"/>
<path fill-rule="evenodd" clip-rule="evenodd" d="M680.722 258.015C681.171 258.133 681.62 258.25 682.07 258.367L682.467 258.563C681.549 258.386 681.589 258.46 680.722 258.015Z" fill="white"/>
<path fill-rule="evenodd" clip-rule="evenodd" d="M669.67 125.13C668.976 125.589 669.042 125.595 668.27 125.912C668.979 125.431 668.878 125.443 669.67 125.13Z" fill="white"/>
<path fill-rule="evenodd" clip-rule="evenodd" d="M654.415 148.729L654.831 148.907C655.034 149.184 655.239 149.461 655.441 149.738L655.059 149.724C654.632 149.239 654.822 149.227 654.415 148.729Z" fill="white"/>
<path fill-rule="evenodd" clip-rule="evenodd" d="M771.561 139.068C771.073 139.813 771.185 139.77 770.521 140.391C770.898 139.569 770.949 139.669 771.561 139.068Z" fill="white"/>
<path fill-rule="evenodd" clip-rule="evenodd" d="M642.902 148.812C642.211 149.288 642.309 149.282 641.505 149.606C642.225 149.124 642.15 149.131 642.902 148.812Z" fill="white"/>
<path fill-rule="evenodd" clip-rule="evenodd" d="M621.56 160.83C620.866 161.311 620.948 161.305 620.165 161.648C620.836 161.19 620.75 161.191 621.56 160.83Z" fill="white"/>
<path fill-rule="evenodd" clip-rule="evenodd" d="M791.018 264.857L791.368 264.924C790.577 265.196 790.658 265.141 789.818 265.231C789.915 265.202 790.416 265.053 791.018 264.857Z" fill="white"/>
<path fill-rule="evenodd" clip-rule="evenodd" d="M617.007 158.182C616.467 158.462 615.767 158.986 615.664 159.063C616.308 158.466 616.168 158.358 617.007 158.182Z" fill="white"/>
<path fill-rule="evenodd" clip-rule="evenodd" d="M671.664 124.109C670.983 124.543 671.071 124.541 670.256 124.878C670.962 124.41 670.863 124.419 671.664 124.109Z" fill="white"/>
<path fill-rule="evenodd" clip-rule="evenodd" d="M596.034 176.289L595.808 176.639C595.715 176.678 595.235 176.868 594.665 177.143C595.361 176.636 595.289 176.639 596.034 176.289Z" fill="white"/>
<path fill-rule="evenodd" clip-rule="evenodd" d="M593.852 177.727L593.635 178.094C593.544 178.131 593.063 178.327 592.5 178.607C593.177 178.096 593.088 178.11 593.852 177.727Z" fill="white"/>
<path fill-rule="evenodd" clip-rule="evenodd" d="M779.116 91.9042L779.508 92.1667C778.901 92.2963 778.973 92.2882 778.309 92.3402C778.578 92.1945 778.847 92.0495 779.116 91.9042Z" fill="white"/>
<path fill-rule="evenodd" clip-rule="evenodd" d="M705.257 239.351C705.099 239.949 704.942 240.547 704.786 241.147C704.861 240.155 704.889 240.244 705.257 239.351Z" fill="white"/>
<path fill-rule="evenodd" clip-rule="evenodd" d="M767.042 145.701C766.359 146.19 766.453 146.182 765.663 146.526C766.325 146.064 766.255 146.059 767.042 145.701Z" fill="white"/>
<path fill-rule="evenodd" clip-rule="evenodd" d="M672.849 133.539C672.101 134.009 672.204 133.987 671.429 134.29C672.111 133.862 672.043 133.854 672.849 133.539Z" fill="white"/>
<path fill-rule="evenodd" clip-rule="evenodd" d="M772.311 92.595C771.703 92.7461 771.802 92.7305 771.104 92.8299C771.507 92.7519 771.909 92.6733 772.311 92.595Z" fill="white"/>
<path fill-rule="evenodd" clip-rule="evenodd" d="M706.44 235.937C706.281 236.535 706.124 237.133 705.966 237.731C706.055 236.768 706.066 236.85 706.44 235.937Z" fill="white"/>
<path fill-rule="evenodd" clip-rule="evenodd" d="M774.516 92.1644L774.911 92.3722C774.282 92.5245 774.362 92.5109 773.705 92.5878C773.976 92.4469 774.247 92.3052 774.516 92.1644Z" fill="white"/>
<path fill-rule="evenodd" clip-rule="evenodd" d="M618.769 162.459C618.434 162.788 618.096 163.116 617.759 163.445C617.904 163.195 618.047 162.946 618.192 162.696C618.385 162.618 618.577 162.539 618.769 162.459Z" fill="white"/>
<path fill-rule="evenodd" clip-rule="evenodd" d="M612.974 161.152C612.411 161.534 612.488 161.487 611.915 161.725C612.268 161.534 612.621 161.343 612.974 161.152Z" fill="white"/>
<path fill-rule="evenodd" clip-rule="evenodd" d="M701.196 267.363C700.688 268.003 700.817 268.04 700.149 268.33L700.593 267.578L701.196 267.363Z" fill="white"/>
<path fill-rule="evenodd" clip-rule="evenodd" d="M608.199 168.765C607.862 169.092 607.524 169.419 607.187 169.747C607.333 169.501 607.48 169.255 607.625 169.01C607.816 168.928 608.008 168.847 608.199 168.765Z" fill="white"/>
<path fill-rule="evenodd" clip-rule="evenodd" d="M796.311 123.619L795.875 124.396C795.62 124.605 795.365 124.814 795.109 125.023C795.51 124.555 795.91 124.087 796.311 123.619Z" fill="white"/>
<path fill-rule="evenodd" clip-rule="evenodd" d="M681.241 129.665L681.004 129.967C680.91 130.002 680.412 130.187 679.815 130.412C680.562 129.987 680.469 130.016 681.241 129.665Z" fill="white"/>
<path fill-rule="evenodd" clip-rule="evenodd" d="M771.225 143.257C770.888 143.583 770.55 143.91 770.213 144.236C770.36 143.992 770.507 143.747 770.654 143.503C770.844 143.421 771.035 143.339 771.225 143.257Z" fill="white"/>
<path fill-rule="evenodd" clip-rule="evenodd" d="M762.116 94.0398C761.51 94.2142 761.574 94.1993 760.906 94.3443C761.31 94.243 761.714 94.1411 762.116 94.0398Z" fill="white"/>
<path fill-rule="evenodd" clip-rule="evenodd" d="M776.994 139.592C776.656 139.914 776.319 140.237 775.979 140.559L776.438 139.853C776.623 139.766 776.808 139.679 776.994 139.592Z" fill="white"/>
<path fill-rule="evenodd" clip-rule="evenodd" d="M688.84 126.422L688.595 126.699C687.954 126.936 688.036 126.906 687.406 127.136C688.135 126.738 688.048 126.76 688.84 126.422Z" fill="white"/>
<path fill-rule="evenodd" clip-rule="evenodd" d="M694.439 124.188L694.187 124.446C693.546 124.678 693.628 124.648 692.997 124.873L693.261 124.653C693.853 124.424 694.345 124.226 694.439 124.188Z" fill="white"/>
<path fill-rule="evenodd" clip-rule="evenodd" d="M625.759 158.404C625.416 158.722 625.073 159.04 624.73 159.358C624.883 159.122 625.033 158.885 625.185 158.65C625.376 158.567 625.566 158.486 625.759 158.404Z" fill="white"/>
<path fill-rule="evenodd" clip-rule="evenodd" d="M601.827 172.644C601.484 172.962 601.142 173.281 600.799 173.6C600.953 173.366 601.107 173.132 601.26 172.898C601.449 172.813 601.638 172.729 601.827 172.644Z" fill="white"/>
<path fill-rule="evenodd" clip-rule="evenodd" d="M614.59 164.916C614.248 165.233 613.903 165.55 613.559 165.866C613.712 165.634 613.866 165.401 614.02 165.169C614.211 165.085 614.401 165 614.59 164.916Z" fill="white"/>
<path fill-rule="evenodd" clip-rule="evenodd" d="M609.587 167.943C609.217 168.126 608.848 168.309 608.477 168.491C609.047 168.179 608.996 168.204 609.587 167.943Z" fill="white"/>
<path fill-rule="evenodd" clip-rule="evenodd" d="M659.532 214.907C659.766 215.567 659.743 215.504 659.904 216.119C659.282 215.668 659.324 215.607 659.532 214.907Z" fill="white"/>
<path fill-rule="evenodd" clip-rule="evenodd" d="M700.593 267.579L700.149 268.331C699.962 268.415 699.775 268.499 699.589 268.584C699.923 268.248 700.259 267.913 700.593 267.579Z" fill="white"/>
<path fill-rule="evenodd" clip-rule="evenodd" d="M659.818 216.513C659.838 216.609 659.939 217.113 660.154 217.706L659.848 217.489C659.839 217.164 659.829 216.838 659.818 216.513Z" fill="white"/>
<path fill-rule="evenodd" clip-rule="evenodd" d="M691.339 271.059C690.587 271.183 690.682 271.085 689.919 270.863C690.393 270.928 690.865 270.994 691.339 271.059Z" fill="white"/>
<path fill-rule="evenodd" clip-rule="evenodd" d="M603.21 171.813C602.843 171.999 602.474 172.185 602.107 172.371C602.673 172.053 602.623 172.078 603.21 171.813Z" fill="white"/>
<path fill-rule="evenodd" clip-rule="evenodd" d="M665.93 237.497C665.993 237.698 666.057 237.899 666.122 238.1L665.951 238.49C665.882 238.291 665.814 238.09 665.746 237.89L665.93 237.497Z" fill="white"/>
<path fill-rule="evenodd" clip-rule="evenodd" d="M640.925 149.865C640.578 150.177 640.232 150.488 639.884 150.799C640.04 150.571 640.196 150.341 640.351 150.111C640.544 150.029 640.734 149.947 640.925 149.865Z" fill="white"/>
<path fill-rule="evenodd" clip-rule="evenodd" d="M634.877 145.896C634.299 146.24 634.355 146.206 633.797 146.48C634.157 146.286 634.517 146.091 634.877 145.896Z" fill="white"/>
<path fill-rule="evenodd" clip-rule="evenodd" d="M679.331 144.739L678.53 146.362C678.721 145.394 678.71 145.444 679.331 144.739Z" fill="white"/>
<path fill-rule="evenodd" clip-rule="evenodd" d="M648.638 137.16C648.05 137.494 648.108 137.463 647.542 137.73C647.907 137.54 648.272 137.35 648.638 137.16Z" fill="white"/>
<path fill-rule="evenodd" clip-rule="evenodd" d="M662.275 227.699L662.636 227.907C662.707 228.107 662.779 228.304 662.851 228.504L662.484 228.297C662.414 228.1 662.345 227.899 662.275 227.699Z" fill="white"/>
<path fill-rule="evenodd" clip-rule="evenodd" d="M651.351 135.137C651.192 135.362 651.033 135.586 650.876 135.811C650.687 135.897 650.498 135.984 650.311 136.07C650.657 135.759 651.005 135.448 651.351 135.137Z" fill="white"/>
<path fill-rule="evenodd" clip-rule="evenodd" d="M660.862 234.555C660.983 234.957 661.105 235.36 661.226 235.762C661.002 235.12 661.021 235.178 660.862 234.555Z" fill="white"/>
<path fill-rule="evenodd" clip-rule="evenodd" d="M661.053 223.1L661.395 223.309C661.467 223.507 661.541 223.706 661.614 223.904C661.427 223.637 661.24 223.369 661.053 223.1Z" fill="white"/>
<path fill-rule="evenodd" clip-rule="evenodd" d="M605.429 170.429C605.079 170.736 604.73 171.043 604.38 171.35L604.59 170.974C604.869 170.792 605.149 170.61 605.429 170.429Z" fill="white"/>
<path fill-rule="evenodd" clip-rule="evenodd" d="M718.41 217.865L718.466 218.37L718.238 219.219C718.17 218.458 718.132 218.54 718.41 217.865Z" fill="white"/>
<path fill-rule="evenodd" clip-rule="evenodd" d="M715.563 198.959C715.507 199.659 715.619 199.629 715.199 200.206C715.32 199.79 715.442 199.375 715.563 198.959Z" fill="white"/>
<path fill-rule="evenodd" clip-rule="evenodd" d="M683.266 258.958C683.643 259.219 684.023 259.479 684.402 259.74C683.673 259.47 683.75 259.47 683.266 258.958Z" fill="white"/>
<path fill-rule="evenodd" clip-rule="evenodd" d="M594.666 177.143C594.322 177.459 593.979 177.778 593.635 178.094L593.852 177.727C594.124 177.533 594.395 177.339 594.666 177.143Z" fill="white"/>
<path fill-rule="evenodd" clip-rule="evenodd" d="M664.101 245.161L664.352 245.411C664.422 245.719 664.491 246.026 664.56 246.334C664.305 245.754 664.326 245.813 664.101 245.161Z" fill="white"/>
<path fill-rule="evenodd" clip-rule="evenodd" d="M710.141 204.991C710.352 205.243 710.564 205.497 710.774 205.75L709.747 204.965L710.141 204.991Z" fill="white"/>
<path fill-rule="evenodd" clip-rule="evenodd" d="M678.048 131.098L677.812 131.396C677.504 131.464 677.196 131.532 676.89 131.6C677.472 131.356 677.955 131.139 678.048 131.098Z" fill="white"/>
<path fill-rule="evenodd" clip-rule="evenodd" d="M704.396 110.207L704.744 110.251C704.146 110.456 703.643 110.63 703.546 110.663L703.796 110.413C703.996 110.344 704.195 110.276 704.396 110.207Z" fill="white"/>
<path fill-rule="evenodd" clip-rule="evenodd" d="M699.001 112.06L699.351 112.105C699.257 112.137 698.751 112.308 698.153 112.516L698.403 112.266C698.603 112.198 698.802 112.129 699.001 112.06Z" fill="white"/>
<path fill-rule="evenodd" clip-rule="evenodd" d="M596.859 175.721C596.509 176.027 596.16 176.333 595.81 176.641L596.034 176.289C596.31 176.099 596.585 175.91 596.859 175.721Z" fill="white"/>
<path fill-rule="evenodd" clip-rule="evenodd" d="M693.808 189.483C694.014 189.742 694.221 190.001 694.425 190.26L693.427 189.455L693.808 189.483Z" fill="white"/>
<path fill-rule="evenodd" clip-rule="evenodd" d="M707.392 109.179L707.741 109.223C707.645 109.255 707.141 109.426 706.543 109.632L706.792 109.384C706.993 109.316 707.192 109.247 707.392 109.179Z" fill="white"/>
<path fill-rule="evenodd" clip-rule="evenodd" d="M710.738 108.198C710.137 108.396 709.633 108.568 709.537 108.601L709.789 108.354C710.105 108.302 710.422 108.25 710.738 108.198Z" fill="white"/>
<path fill-rule="evenodd" clip-rule="evenodd" d="M701.399 111.236L701.747 111.278C701.149 111.483 700.645 111.658 700.549 111.692L700.799 111.441C701 111.373 701.2 111.305 701.399 111.236Z" fill="white"/>
<path fill-rule="evenodd" clip-rule="evenodd" d="M659.85 217.487L660.154 217.706C660.23 217.904 660.305 218.101 660.38 218.301C660.203 218.029 660.027 217.758 659.85 217.487Z" fill="white"/>
<path fill-rule="evenodd" clip-rule="evenodd" d="M703.001 265.749C702.74 266.08 702.48 266.408 702.219 266.741C702.436 266.064 702.483 266.172 703.001 265.749Z" fill="white"/>
<path fill-rule="evenodd" clip-rule="evenodd" d="M713.986 106.923L714.358 107.032C714.159 107.101 713.958 107.169 713.758 107.237L713.388 107.13C713.587 107.061 713.786 106.992 713.986 106.923Z" fill="white"/>
<path fill-rule="evenodd" clip-rule="evenodd" d="M691.619 114.918L691.946 114.933C691.355 115.158 690.862 115.358 690.769 115.396L691.019 115.136C691.22 115.064 691.42 114.991 691.619 114.918Z" fill="white"/>
<path fill-rule="evenodd" clip-rule="evenodd" d="M687.544 116.762C686.962 117.001 686.473 117.21 686.38 117.249L686.628 116.981C686.934 116.908 687.24 116.835 687.544 116.762Z" fill="white"/>
<path fill-rule="evenodd" clip-rule="evenodd" d="M713.387 107.13L713.758 107.237C713.559 107.305 713.358 107.372 713.158 107.44L712.788 107.334C712.987 107.266 713.186 107.198 713.387 107.13Z" fill="white"/>
<path fill-rule="evenodd" clip-rule="evenodd" d="M710.595 118.561L710.964 118.66C710.765 118.728 710.565 118.797 710.366 118.866L709.997 118.767C710.196 118.698 710.396 118.629 710.595 118.561Z" fill="white"/>
<path fill-rule="evenodd" clip-rule="evenodd" d="M709.364 225.882C709.285 226.55 709.388 226.531 709.002 227.133C709.123 226.716 709.243 226.3 709.364 225.882Z" fill="white"/>
<path fill-rule="evenodd" clip-rule="evenodd" d="M711.196 118.357L711.565 118.454C711.364 118.523 711.165 118.591 710.964 118.66L710.595 118.561C710.796 118.493 710.995 118.425 711.196 118.357Z" fill="white"/>
<path fill-rule="evenodd" clip-rule="evenodd" d="M696.812 123.295L696.581 123.6C696.38 123.669 696.181 123.739 695.98 123.809L696.214 123.507C696.414 123.436 696.613 123.365 696.812 123.295Z" fill="white"/>
<path fill-rule="evenodd" clip-rule="evenodd" d="M726.971 102.802L727.345 102.911C727.142 102.974 726.941 103.036 726.738 103.098L726.369 103.004C726.57 102.936 726.771 102.869 726.971 102.802Z" fill="white"/>
<path fill-rule="evenodd" clip-rule="evenodd" d="M712.087 215.235C712.011 215.892 712.115 215.871 711.725 216.482C711.845 216.065 711.966 215.649 712.087 215.235Z" fill="white"/>
<path fill-rule="evenodd" clip-rule="evenodd" d="M711.8 118.162L712.169 118.251C711.968 118.319 711.767 118.386 711.566 118.454L711.197 118.357C711.398 118.292 711.599 118.227 711.8 118.162Z" fill="white"/>
<path fill-rule="evenodd" clip-rule="evenodd" d="M697.155 256.417C696.908 257.08 696.865 256.989 696.384 257.459C696.641 257.111 696.898 256.763 697.155 256.417Z" fill="white"/>
<path fill-rule="evenodd" clip-rule="evenodd" d="M791.929 264.712C791.742 264.782 791.553 264.854 791.367 264.924L791.018 264.857C791.476 264.659 791.42 264.661 791.929 264.712Z" fill="white"/>
<path fill-rule="evenodd" clip-rule="evenodd" d="M697.209 112.682L696.97 112.965C696.772 113.042 696.575 113.119 696.379 113.196L696.611 112.891C696.811 112.821 697.01 112.751 697.209 112.682Z" fill="white"/>
<path fill-rule="evenodd" clip-rule="evenodd" d="M696.214 123.507L695.98 123.809C695.781 123.879 695.581 123.949 695.384 124.02L695.623 123.736C695.819 123.659 696.017 123.583 696.214 123.507Z" fill="white"/>
<path fill-rule="evenodd" clip-rule="evenodd" d="M690.421 115.349L690.18 115.63C689.986 115.713 689.791 115.796 689.599 115.878L689.825 115.558C690.024 115.488 690.222 115.418 690.421 115.349Z" fill="white"/>
<path fill-rule="evenodd" clip-rule="evenodd" d="M751.149 96.1753L751.525 96.2949C751.198 96.3226 750.869 96.35 750.541 96.3775C750.743 96.31 750.946 96.243 751.149 96.1753Z" fill="white"/>
<path fill-rule="evenodd" clip-rule="evenodd" d="M711.585 107.745L711.955 107.843C711.632 107.879 711.308 107.914 710.985 107.949C711.184 107.881 711.384 107.813 711.585 107.745Z" fill="white"/>
<path fill-rule="evenodd" clip-rule="evenodd" d="M739.757 99.0779L740.129 99.1812C739.925 99.2374 739.722 99.2932 739.519 99.3491L739.157 99.2797C739.358 99.2124 739.558 99.1452 739.757 99.0779Z" fill="white"/>
<path fill-rule="evenodd" clip-rule="evenodd" d="M775.885 135.152L775.088 136.144C775.327 135.488 775.368 135.591 775.885 135.152Z" fill="white"/>
<path fill-rule="evenodd" clip-rule="evenodd" d="M721.798 115.092L722.16 115.163C721.959 115.229 721.76 115.295 721.559 115.36L721.19 115.268C721.393 115.209 721.596 115.151 721.798 115.092Z" fill="white"/>
<path fill-rule="evenodd" clip-rule="evenodd" d="M733.964 100.733L734.331 100.825C734.128 100.884 733.925 100.944 733.724 101.003L733.364 100.938C733.563 100.87 733.762 100.802 733.964 100.733Z" fill="white"/>
<path fill-rule="evenodd" clip-rule="evenodd" d="M726.37 103.004L726.738 103.099C726.536 103.157 726.333 103.216 726.13 103.274L725.771 103.204C725.971 103.137 726.17 103.07 726.37 103.004Z" fill="white"/>
<path fill-rule="evenodd" clip-rule="evenodd" d="M712.408 117.984L712.769 118.051C712.567 118.118 712.368 118.184 712.169 118.251L711.8 118.162C712.003 118.102 712.205 118.043 712.408 117.984Z" fill="white"/>
<path fill-rule="evenodd" clip-rule="evenodd" d="M689.426 126.178L689.192 126.484C688.993 126.555 688.795 126.627 688.596 126.698L688.841 126.422C689.036 126.341 689.23 126.26 689.426 126.178Z" fill="white"/>
<path fill-rule="evenodd" clip-rule="evenodd" d="M695.963 257.833C695.704 258.507 695.664 258.405 695.176 258.834L695.963 257.833Z" fill="white"/>
<path fill-rule="evenodd" clip-rule="evenodd" d="M773.11 137.794L772.293 138.76C772.542 138.121 772.578 138.223 773.11 137.794Z" fill="white"/>
<path fill-rule="evenodd" clip-rule="evenodd" d="M747.75 97.004L748.122 97.1116C747.797 97.141 747.473 97.1705 747.146 97.1999C747.348 97.1345 747.549 97.0689 747.75 97.004Z" fill="white"/>
<path fill-rule="evenodd" clip-rule="evenodd" d="M686.628 116.98L686.38 117.249C686.186 117.333 685.992 117.415 685.798 117.499L686.03 117.194C686.232 117.123 686.429 117.051 686.628 116.98Z" fill="white"/>
<path fill-rule="evenodd" clip-rule="evenodd" d="M725.771 103.203L726.13 103.274C725.93 103.339 725.729 103.404 725.528 103.47L725.171 103.41C725.371 103.341 725.572 103.272 725.771 103.203Z" fill="white"/>
<path fill-rule="evenodd" clip-rule="evenodd" d="M719.219 212.193C719.179 212.531 719.139 212.868 719.097 213.206C719.076 213.001 719.055 212.795 719.034 212.59L719.219 212.193Z" fill="white"/>
<path fill-rule="evenodd" clip-rule="evenodd" d="M695.621 123.735L695.382 124.02C695.184 124.09 694.985 124.161 694.786 124.231L695.032 123.965C695.228 123.888 695.426 123.812 695.621 123.735Z" fill="white"/>
<path fill-rule="evenodd" clip-rule="evenodd" d="M659.35 213.3C659.373 213.638 659.395 213.974 659.418 214.309C659.29 213.589 659.226 213.68 659.35 213.3Z" fill="white"/>
<path fill-rule="evenodd" clip-rule="evenodd" d="M697.806 112.472L697.559 112.733C697.363 112.81 697.166 112.888 696.97 112.966L697.211 112.682C697.409 112.612 697.606 112.542 697.806 112.472Z" fill="white"/>
<path fill-rule="evenodd" clip-rule="evenodd" d="M691.019 115.136L690.769 115.396C690.571 115.474 690.376 115.552 690.18 115.63L690.421 115.349C690.62 115.277 690.82 115.207 691.019 115.136Z" fill="white"/>
<path fill-rule="evenodd" clip-rule="evenodd" d="M713.013 117.797L713.365 117.848C713.165 117.916 712.968 117.983 712.768 118.051L712.408 117.984C712.609 117.921 712.81 117.859 713.013 117.797Z" fill="white"/>
<path fill-rule="evenodd" clip-rule="evenodd" d="M725.172 103.41L725.528 103.47C725.208 103.517 724.888 103.565 724.568 103.612C724.769 103.545 724.971 103.478 725.172 103.41Z" fill="white"/>
<path fill-rule="evenodd" clip-rule="evenodd" d="M713.613 117.592L713.964 117.643C713.765 117.711 713.566 117.779 713.365 117.848L713.013 117.797C713.213 117.729 713.414 117.66 713.613 117.592Z" fill="white"/>
<path fill-rule="evenodd" clip-rule="evenodd" d="M739.157 99.2798L739.519 99.349C739.196 99.395 738.874 99.4409 738.552 99.487C738.753 99.418 738.956 99.349 739.157 99.2798Z" fill="white"/>
<path fill-rule="evenodd" clip-rule="evenodd" d="M733.364 100.938L733.724 101.003C733.402 101.048 733.082 101.093 732.762 101.138C732.962 101.071 733.163 101.005 733.364 100.938Z" fill="white"/>
<path fill-rule="evenodd" clip-rule="evenodd" d="M722.407 114.915L722.762 114.964C722.561 115.031 722.362 115.097 722.16 115.163L721.8 115.092C722.001 115.033 722.204 114.974 722.407 114.915Z" fill="white"/>
<path fill-rule="evenodd" clip-rule="evenodd" d="M714.213 117.391L714.568 117.44C714.367 117.508 714.166 117.575 713.965 117.643L713.613 117.592C713.813 117.525 714.014 117.458 714.213 117.391Z" fill="white"/>
<path fill-rule="evenodd" clip-rule="evenodd" d="M695.032 123.965L694.786 124.231C694.586 124.303 694.387 124.375 694.188 124.446L694.439 124.188C694.637 124.113 694.834 124.039 695.032 123.965Z" fill="white"/>
<path fill-rule="evenodd" clip-rule="evenodd" d="M703.796 110.413L703.546 110.663C703.347 110.732 703.148 110.802 702.948 110.871C703.23 110.718 703.513 110.566 703.796 110.413Z" fill="white"/>
<path fill-rule="evenodd" clip-rule="evenodd" d="M698.402 112.266L698.153 112.515C697.954 112.588 697.756 112.66 697.557 112.733L697.805 112.472C698.005 112.403 698.202 112.334 698.402 112.266Z" fill="white"/>
<path fill-rule="evenodd" clip-rule="evenodd" d="M705.944 109.84C705.744 109.909 705.543 109.978 705.344 110.046L704.994 110.002C705.311 109.948 705.627 109.894 705.944 109.84Z" fill="white"/>
<path fill-rule="evenodd" clip-rule="evenodd" d="M699.951 111.9C699.752 111.968 699.552 112.036 699.351 112.104L699.001 112.06C699.318 112.007 699.634 111.954 699.951 111.9Z" fill="white"/>
<path fill-rule="evenodd" clip-rule="evenodd" d="M709.189 108.56L708.941 108.81C708.739 108.88 708.54 108.949 708.341 109.019C708.624 108.866 708.907 108.713 709.189 108.56Z" fill="white"/>
<path fill-rule="evenodd" clip-rule="evenodd" d="M702.948 110.871C702.747 110.939 702.548 111.007 702.349 111.075L701.997 111.031C702.315 110.978 702.632 110.925 702.948 110.871Z" fill="white"/>
<path fill-rule="evenodd" clip-rule="evenodd" d="M708.341 109.019C708.142 109.087 707.941 109.155 707.741 109.223L707.392 109.179C707.708 109.126 708.025 109.072 708.341 109.019Z" fill="white"/>
<path fill-rule="evenodd" clip-rule="evenodd" d="M700.799 111.441L700.549 111.692C700.35 111.761 700.151 111.831 699.951 111.9C700.234 111.747 700.518 111.594 700.799 111.441Z" fill="white"/>
<path fill-rule="evenodd" clip-rule="evenodd" d="M663.533 243.011C663.585 243.328 663.637 243.644 663.69 243.961C663.622 243.762 663.555 243.562 663.485 243.361L663.533 243.011Z" fill="white"/>
<path fill-rule="evenodd" clip-rule="evenodd" d="M663.691 243.961C663.844 244.244 663.996 244.528 664.146 244.809L663.896 244.561C663.828 244.361 663.76 244.162 663.691 243.961Z" fill="white"/>
<path fill-rule="evenodd" clip-rule="evenodd" d="M704.994 110.002L705.344 110.046C705.145 110.114 704.945 110.182 704.744 110.251L704.395 110.207C704.596 110.139 704.795 110.071 704.994 110.002Z" fill="white"/>
<path fill-rule="evenodd" clip-rule="evenodd" d="M666.288 126.956C666.009 127.135 665.727 127.313 665.447 127.493L665.69 127.19C665.89 127.112 666.089 127.034 666.288 126.956Z" fill="white"/>
<path fill-rule="evenodd" clip-rule="evenodd" d="M706.792 109.383L706.542 109.632C706.342 109.701 706.143 109.771 705.944 109.84C706.227 109.688 706.509 109.535 706.792 109.383Z" fill="white"/>
<path fill-rule="evenodd" clip-rule="evenodd" d="M663.326 242.411C663.396 242.611 663.464 242.81 663.533 243.011L663.485 243.361C663.417 243.162 663.351 242.962 663.281 242.761L663.326 242.411Z" fill="white"/>
<path fill-rule="evenodd" clip-rule="evenodd" d="M663.896 244.561L664.146 244.809C664.214 245.01 664.284 245.211 664.352 245.411L664.101 245.161C664.032 244.961 663.964 244.76 663.896 244.561Z" fill="white"/>
<path fill-rule="evenodd" clip-rule="evenodd" d="M662.92 241.203C662.987 241.406 663.055 241.609 663.123 241.811L663.076 242.161C663.025 241.843 662.973 241.523 662.92 241.203Z" fill="white"/>
<path fill-rule="evenodd" clip-rule="evenodd" d="M663.123 241.81C663.192 242.011 663.258 242.21 663.326 242.411L663.281 242.761C663.213 242.562 663.144 242.362 663.076 242.161L663.123 241.81Z" fill="white"/>
<path fill-rule="evenodd" clip-rule="evenodd" d="M709.789 108.354L709.539 108.601C709.34 108.671 709.14 108.741 708.941 108.81L709.189 108.56C709.389 108.492 709.588 108.423 709.789 108.354Z" fill="white"/>
<path fill-rule="evenodd" clip-rule="evenodd" d="M701.997 111.031L702.348 111.075C702.147 111.142 701.948 111.21 701.747 111.278L701.399 111.236C701.598 111.168 701.798 111.099 701.997 111.031Z" fill="white"/>
<path fill-rule="evenodd" clip-rule="evenodd" d="M753.338 95.7441L753.706 95.8001C753.379 95.8484 753.052 95.8965 752.725 95.9449C752.929 95.8779 753.134 95.8106 753.338 95.7441Z" fill="white"/>
<path fill-rule="evenodd" clip-rule="evenodd" d="M638.943 150.901L638.7 151.206C638.502 151.287 638.303 151.368 638.105 151.449C638.385 151.266 638.665 151.084 638.943 150.901Z" fill="white"/>
<path fill-rule="evenodd" clip-rule="evenodd" d="M768.315 257.298L769.48 257.959C768.788 257.755 768.858 257.778 768.315 257.298Z" fill="white"/>
<path fill-rule="evenodd" clip-rule="evenodd" d="M678.176 147.73L677.852 148.996C677.891 148.315 677.817 148.339 678.176 147.73Z" fill="white"/>
<path fill-rule="evenodd" clip-rule="evenodd" d="M750.541 96.3774C750.261 96.516 749.979 96.6545 749.698 96.793L749.93 96.5868C750.133 96.5174 750.338 96.4474 750.541 96.3774Z" fill="white"/>
<path fill-rule="evenodd" clip-rule="evenodd" d="M623.784 159.451L623.545 159.767C623.349 159.851 623.155 159.935 622.959 160.02C623.234 159.83 623.51 159.64 623.784 159.451Z" fill="white"/>
<path fill-rule="evenodd" clip-rule="evenodd" d="M715.171 117.242C714.97 117.308 714.769 117.375 714.568 117.44L714.213 117.391C714.533 117.342 714.851 117.292 715.171 117.242Z" fill="white"/>
<path fill-rule="evenodd" clip-rule="evenodd" d="M723.012 114.732L723.363 114.765C723.164 114.831 722.961 114.897 722.76 114.964L722.405 114.914C722.608 114.854 722.809 114.793 723.012 114.732Z" fill="white"/>
<path fill-rule="evenodd" clip-rule="evenodd" d="M674.865 132.554L674.62 132.838C674.424 132.914 674.227 132.991 674.029 133.068C674.307 132.897 674.587 132.725 674.865 132.554Z" fill="white"/>
<path fill-rule="evenodd" clip-rule="evenodd" d="M732.157 101.338C731.876 101.487 731.594 101.635 731.314 101.783L731.547 101.563C731.75 101.488 731.954 101.413 732.157 101.338Z" fill="white"/>
<path fill-rule="evenodd" clip-rule="evenodd" d="M684.048 118.193L684.361 118.215C684.161 118.286 683.964 118.357 683.764 118.428L683.439 118.405C683.642 118.334 683.845 118.263 684.048 118.193Z" fill="white"/>
<path fill-rule="evenodd" clip-rule="evenodd" d="M684.453 128.276L684.205 128.544C684.006 128.618 683.808 128.692 683.61 128.766L683.873 128.524C684.065 128.442 684.259 128.359 684.453 128.276Z" fill="white"/>
<path fill-rule="evenodd" clip-rule="evenodd" d="M724.568 103.612C724.281 103.749 723.994 103.886 723.709 104.023L723.968 103.809C724.168 103.743 724.367 103.678 724.568 103.612Z" fill="white"/>
<path fill-rule="evenodd" clip-rule="evenodd" d="M601.762 53.0548L603.016 53.4217C602.304 53.3336 602.385 53.4098 601.762 53.0548Z" fill="white"/>
<path fill-rule="evenodd" clip-rule="evenodd" d="M722.766 104.221C722.482 104.362 722.197 104.504 721.914 104.646C722.178 104.355 722.175 104.439 722.766 104.221Z" fill="white"/>
<path fill-rule="evenodd" clip-rule="evenodd" d="M692.546 114.728C692.347 114.797 692.145 114.865 691.946 114.933L691.619 114.918C692.201 114.729 692.151 114.66 692.546 114.728Z" fill="white"/>
<path fill-rule="evenodd" clip-rule="evenodd" d="M764.881 255.142L766.031 255.822C765.355 255.59 765.419 255.614 764.881 255.142Z" fill="white"/>
<path fill-rule="evenodd" clip-rule="evenodd" d="M723.968 114.573C723.767 114.636 723.566 114.701 723.365 114.765L723.014 114.732C723.332 114.679 723.65 114.626 723.968 114.573Z" fill="white"/>
<path fill-rule="evenodd" clip-rule="evenodd" d="M723.968 103.809L723.71 104.024C723.509 104.091 723.309 104.159 723.11 104.227C723.397 104.088 723.682 103.949 723.968 103.809Z" fill="white"/>
<path fill-rule="evenodd" clip-rule="evenodd" d="M784.96 239.828L785.172 240.09C785.24 240.29 785.308 240.491 785.373 240.69C785.237 240.404 785.099 240.115 784.96 239.828Z" fill="white"/>
<path fill-rule="evenodd" clip-rule="evenodd" d="M784.754 239.228C784.893 239.515 785.032 239.804 785.172 240.09L784.963 239.828C784.891 239.627 784.823 239.428 784.754 239.228Z" fill="white"/>
<path fill-rule="evenodd" clip-rule="evenodd" d="M785.373 240.69C785.441 240.892 785.509 241.091 785.578 241.292L785.571 241.628C785.506 241.315 785.439 241.003 785.373 240.69Z" fill="white"/>
<path fill-rule="evenodd" clip-rule="evenodd" d="M785.58 241.292C785.648 241.491 785.714 241.691 785.783 241.89L785.776 242.231C785.707 242.03 785.641 241.829 785.573 241.63L785.58 241.292Z" fill="white"/>
<path fill-rule="evenodd" clip-rule="evenodd" d="M683.872 128.524L683.61 128.766C683.411 128.841 683.213 128.915 683.016 128.991C683.301 128.835 683.586 128.68 683.872 128.524Z" fill="white"/>
<path fill-rule="evenodd" clip-rule="evenodd" d="M693.261 124.653L692.997 124.873C692.799 124.945 692.6 125.018 692.4 125.09C692.687 124.944 692.974 124.799 693.261 124.653Z" fill="white"/>
<path fill-rule="evenodd" clip-rule="evenodd" d="M785.782 241.89C785.844 242.207 785.903 242.523 785.966 242.838C785.901 242.635 785.84 242.434 785.775 242.231L785.782 241.89Z" fill="white"/>
<path d="M690.568 167.612C700.514 172.484 711.368 170.732 714.813 163.698C718.258 156.664 712.987 147.013 703.041 142.141C693.095 137.268 682.239 139.021 678.795 146.055C675.352 153.088 680.622 162.74 690.568 167.612Z" fill="white"/>
</g>
<path d="M1273 316.558V411H0V316.558H1273ZM261.787 335.776C258.874 335.776 256.256 336.242 253.931 337.172C251.629 338.102 249.646 339.521 247.981 341.431C246.319 343.341 245.045 345.74 244.164 348.628C243.307 351.493 242.879 354.859 242.879 358.726V367.833C242.879 371.75 243.332 375.142 244.237 378.005C245.143 380.845 246.453 383.22 248.165 385.13C249.903 387.013 251.972 388.421 254.371 389.352C256.793 390.282 259.486 390.747 262.448 390.747C265.802 390.747 268.64 390.356 270.966 389.572C273.316 388.764 275.213 387.833 276.655 386.78C278.124 385.703 279.238 384.762 279.997 383.954V361.921H261.604V370.036H269.276V379.878C268.958 380.049 268.554 380.294 268.064 380.612C267.599 380.906 266.975 381.188 266.191 381.457C265.41 381.726 264.37 381.861 263.072 381.861C261.457 381.861 260.049 381.616 258.85 381.126C257.675 380.612 256.696 379.791 255.913 378.665C255.154 377.539 254.579 376.082 254.188 374.297C253.796 372.51 253.6 370.355 253.6 367.833V358.652C253.6 356.108 253.772 353.953 254.114 352.19C254.457 350.428 254.983 348.983 255.692 347.856C256.402 346.732 257.282 345.923 258.335 345.434C259.388 344.919 260.624 344.663 262.044 344.663C263.684 344.663 265.019 344.945 266.047 345.508C267.073 346.047 267.869 346.952 268.432 348.224C269.019 349.497 269.399 351.26 269.57 353.513H279.96C279.691 349.669 278.883 346.426 277.537 343.781C276.215 341.137 274.258 339.141 271.663 337.796C269.093 336.449 265.802 335.776 261.787 335.776ZM640.092 335.813C637.228 335.813 634.62 336.315 632.271 337.319C629.922 338.299 627.889 339.766 626.176 341.725C624.462 343.659 623.155 346.083 622.249 348.995C621.343 351.884 620.89 355.263 620.89 359.13V368.053C620.89 371.823 621.355 375.129 622.285 377.968C623.215 380.783 624.524 383.146 626.213 385.056C627.927 386.939 629.958 388.36 632.309 389.314C634.681 390.269 637.301 390.747 640.165 390.747C643.028 390.747 645.635 390.269 647.985 389.314C650.36 388.36 652.377 386.939 654.042 385.056C655.731 383.146 657.029 380.783 657.935 377.968C658.865 375.129 659.33 371.823 659.33 368.053V359.13C659.33 355.263 658.865 351.884 657.935 348.995C657.029 346.083 655.719 343.659 654.006 341.725C652.292 339.766 650.261 338.299 647.911 337.319C645.561 336.316 642.954 335.813 640.092 335.813ZM886.517 335.813C883.654 335.814 881.047 336.316 878.697 337.319C876.349 338.299 874.317 339.766 872.604 341.725C870.89 343.659 869.58 346.083 868.674 348.995C867.768 351.884 867.317 355.263 867.317 359.13V368.053C867.317 371.823 867.781 375.129 868.711 377.968C869.641 380.783 870.951 383.146 872.64 385.056C874.353 386.939 876.385 388.36 878.733 389.314C881.108 390.269 883.728 390.747 886.59 390.747C889.454 390.747 892.062 390.269 894.412 389.314C896.785 388.36 898.804 386.939 900.469 385.056C902.158 383.146 903.456 380.783 904.361 377.968C905.29 375.129 905.755 371.823 905.755 368.053V359.13C905.755 355.263 905.29 351.884 904.361 348.995C903.456 346.083 902.146 343.659 900.433 341.725C898.719 339.766 896.687 338.299 894.339 337.319C891.989 336.315 889.381 335.813 886.517 335.813ZM993.062 335.813C990.541 335.813 988.254 336.168 986.197 336.878C984.165 337.588 982.391 338.603 980.873 339.925C979.357 341.222 978.182 342.79 977.35 344.626C976.542 346.462 976.138 348.505 976.138 350.758C976.138 353.059 976.566 355.067 977.423 356.781C978.304 358.469 979.492 359.938 980.983 361.187C982.477 362.435 984.153 363.537 986.014 364.492C987.874 365.423 989.796 366.304 991.777 367.135C993.442 367.845 994.788 368.53 995.816 369.191C996.869 369.852 997.665 370.514 998.203 371.175C998.766 371.836 999.134 372.558 999.304 373.342C999.475 374.125 999.561 374.994 999.561 375.947C999.561 377.098 999.377 378.127 999.012 379.033C998.644 379.939 998.032 380.662 997.175 381.2C996.343 381.739 995.216 382.008 993.797 382.008C992.548 382.008 991.434 381.849 990.455 381.53C989.502 381.187 988.694 380.685 988.033 380.024C987.372 379.339 986.883 378.433 986.564 377.307C986.246 376.156 986.087 374.774 986.087 373.158H975.33C975.33 376.193 975.807 378.825 976.762 381.053C977.716 383.256 979.027 385.081 980.689 386.523C982.378 387.943 984.324 389.009 986.527 389.719C988.731 390.404 991.067 390.747 993.54 390.747C996.086 390.747 998.387 390.392 1000.44 389.682C1002.52 388.972 1004.3 387.969 1005.77 386.671C1007.24 385.349 1008.35 383.783 1009.11 381.971C1009.89 380.134 1010.28 378.102 1010.28 375.876C1010.28 373.623 1009.96 371.615 1009.33 369.853C1008.69 368.09 1007.75 366.51 1006.5 365.116C1005.25 363.696 1003.7 362.423 1001.84 361.297C999.977 360.146 997.836 359.094 995.413 358.139C994.165 357.649 993.014 357.146 991.961 356.634C990.933 356.12 990.039 355.593 989.282 355.055C988.523 354.492 987.923 353.867 987.482 353.182C987.066 352.472 986.858 351.676 986.858 350.795C986.858 349.62 987.066 348.566 987.482 347.638C987.923 346.683 988.585 345.936 989.466 345.397C990.37 344.834 991.508 344.553 992.879 344.553C994.348 344.553 995.547 344.883 996.478 345.544C997.408 346.205 998.081 347.123 998.497 348.297C998.938 349.448 999.158 350.783 999.158 352.301H1009.88C1009.88 349.093 1009.18 346.254 1007.79 343.781C1006.42 341.308 1004.47 339.362 1001.95 337.943C999.45 336.523 996.49 335.813 993.062 335.813ZM1073.91 335.813C1071.39 335.813 1069.1 336.168 1067.04 336.878C1065.01 337.588 1063.24 338.603 1061.72 339.925C1060.2 341.223 1059.03 342.79 1058.19 344.626C1057.39 346.462 1056.98 348.505 1056.98 350.758C1056.98 353.059 1057.41 355.067 1058.27 356.781C1059.15 358.469 1060.34 359.938 1061.83 361.187C1063.32 362.435 1065 363.537 1066.86 364.492C1068.72 365.423 1070.64 366.304 1072.62 367.135C1074.29 367.845 1075.63 368.53 1076.66 369.191C1077.71 369.852 1078.51 370.514 1079.05 371.175C1079.61 371.836 1079.98 372.558 1080.15 373.342C1080.32 374.125 1080.41 374.994 1080.41 375.947C1080.41 377.098 1080.22 378.127 1079.86 379.033C1079.49 379.939 1078.88 380.662 1078.02 381.2C1077.19 381.739 1076.06 382.008 1074.64 382.008C1073.4 382.008 1072.28 381.848 1071.3 381.53C1070.35 381.187 1069.54 380.685 1068.88 380.024C1068.22 379.339 1067.73 378.433 1067.41 377.307C1067.09 376.156 1066.93 374.774 1066.93 373.158H1056.17C1056.17 376.193 1056.65 378.825 1057.61 381.053C1058.56 383.256 1059.87 385.081 1061.54 386.523C1063.22 387.944 1065.17 389.009 1067.37 389.719C1069.58 390.404 1071.91 390.747 1074.39 390.747C1076.93 390.747 1079.23 390.392 1081.29 389.682C1083.37 388.972 1085.14 387.968 1086.61 386.671C1088.08 385.349 1089.19 383.783 1089.95 381.971C1090.74 380.134 1091.13 378.102 1091.13 375.876C1091.13 373.623 1090.81 371.615 1090.17 369.853C1089.54 368.09 1088.59 366.51 1087.34 365.116C1086.1 363.696 1084.54 362.423 1082.68 361.297C1080.82 360.146 1078.68 359.094 1076.26 358.139C1075.01 357.649 1073.86 357.146 1072.81 356.634C1071.78 356.12 1070.88 355.593 1070.13 355.055C1069.37 354.492 1068.77 353.867 1068.33 353.182C1067.91 352.472 1067.7 351.676 1067.7 350.795C1067.7 349.62 1067.91 348.566 1068.33 347.638C1068.77 346.683 1069.43 345.936 1070.31 345.397C1071.22 344.834 1072.35 344.553 1073.72 344.553C1075.19 344.553 1076.39 344.883 1077.32 345.544C1078.25 346.205 1078.93 347.123 1079.34 348.297C1079.78 349.448 1080 350.783 1080 352.301H1090.72C1090.72 349.093 1090.03 346.254 1088.63 343.781C1087.26 341.308 1085.31 339.362 1082.79 337.943C1080.3 336.523 1077.33 335.813 1073.91 335.813ZM50.2021 336.548V390.013H60.5928V371.799L59.9697 356.061L70.3213 390.013H78.3623L88.8252 353.208L88.1279 371.799V390.013H98.4814V336.548H85.2275L74.3604 373.121L63.4561 336.548H50.2021ZM121.134 336.548L104.429 390.013H115.773L118.656 378.996H133.433L136.334 390.013H147.752L130.9 336.548H121.134ZM152.855 336.548V390.013H163.062V356.561L179.841 390.013H190.231V336.548H180.024V370.367L163.099 336.548H152.855ZM212.772 336.548L196.068 390.013H207.413L210.296 378.996H225.072L227.974 390.013H239.391L222.539 336.548H212.772ZM287.743 336.548V390.013H318.4V381.126H298.501V366.841H315.279V358.212H298.501V345.471H318.327V336.548H287.743ZM324.678 336.548V390.013H335.068V371.799L334.444 356.057L344.798 390.013H352.838L363.3 353.213L362.604 371.799V390.013H372.957V336.548H359.705L348.837 373.121L337.933 336.548H324.678ZM381.732 336.548V390.013H412.389V381.126H392.489V366.841H409.268V358.212H392.489V345.471H412.315V336.548H381.732ZM418.667 336.548V390.013H428.873V356.561L445.651 390.013H456.042V336.548H445.835V370.367L428.91 336.548H418.667ZM461.183 336.548V345.471H474.215V390.013H484.899V345.471H498.19V336.548H461.183ZM520.034 336.548V390.013H530.719V336.548H520.034ZM539.897 336.548V390.013H550.104V356.561L566.884 390.013H577.272V336.548H567.065V370.367L550.141 336.548H539.897ZM585.937 336.548V390.013H596.694V368.163H613.438V359.276H596.694V345.471H615.492V336.548H585.937ZM667.187 336.548V390.013H677.944V370.403H683.388L691.454 390.013H702.946V389.498L693.526 367.551C694.734 366.894 695.819 366.12 696.778 365.227C698.223 363.855 699.335 362.153 700.118 360.121C700.901 358.064 701.294 355.593 701.294 352.704C701.294 349.178 700.62 346.218 699.273 343.818C697.929 341.419 695.995 339.606 693.474 338.382C690.952 337.159 687.906 336.548 684.332 336.548H667.187ZM708.783 336.548V390.013H719.173V371.799L718.55 356.059L728.902 390.013H736.942L747.406 353.209L746.709 371.799V390.013H757.062V336.548H743.81L732.942 373.121L722.037 336.548H708.783ZM779.716 336.548L763.012 390.013H774.354L777.237 378.996H792.014L794.915 390.013H806.334L789.482 336.548H779.716ZM804.607 336.548V345.471H817.642V390.013H828.326V345.471H841.615V336.548H804.607ZM848.336 336.548V390.013H859.018V336.548H848.336ZM913.577 336.548V390.013H923.783V356.561L940.562 390.013H950.952V336.548H940.745V370.367L923.82 336.548H913.577ZM1013.81 336.548L1028.2 370.587V390.013H1039.03V370.587L1053.42 336.548H1041.71L1033.63 360.636L1025.48 336.548H1013.81ZM1095.97 336.548V345.471H1109.01V390.013H1119.69V345.471H1132.98V336.548H1095.97ZM1139.22 336.548V390.013H1169.88V381.126H1149.98V366.841H1166.76V358.212H1149.98V345.471H1169.8V336.548H1139.22ZM1176.16 336.548V390.013H1186.55V371.799L1185.92 356.062L1196.28 390.013H1204.32L1214.78 353.208L1214.08 371.799V390.013H1224.44V336.548H1211.18L1200.31 373.121L1189.41 336.548H1176.16ZM640.092 344.772C641.487 344.772 642.709 345.042 643.762 345.581C644.814 346.12 645.708 346.964 646.442 348.113C647.177 349.264 647.728 350.746 648.095 352.558C648.462 354.345 648.646 356.512 648.646 359.057V368.053C648.646 370.501 648.462 372.595 648.095 374.333C647.728 376.07 647.189 377.49 646.479 378.592C645.77 379.694 644.876 380.514 643.799 381.053C642.746 381.567 641.536 381.824 640.165 381.824C638.77 381.824 637.533 381.567 636.456 381.053C635.403 380.514 634.51 379.694 633.775 378.592C633.041 377.49 632.492 376.07 632.125 374.333C631.758 372.595 631.574 370.501 631.574 368.053V359.057C631.574 356.512 631.745 354.345 632.088 352.558C632.455 350.746 632.992 349.264 633.702 348.113C634.437 346.964 635.33 346.12 636.383 345.581C637.46 345.042 638.696 344.772 640.092 344.772ZM886.517 344.772C887.912 344.772 889.137 345.042 890.189 345.581C891.242 346.12 892.135 346.965 892.869 348.113C893.604 349.264 894.155 350.746 894.522 352.558C894.89 354.345 895.073 356.512 895.073 359.057V368.053C895.073 370.501 894.89 372.595 894.522 374.333C894.155 376.07 893.616 377.49 892.906 378.592C892.196 379.694 891.303 380.514 890.226 381.053C889.173 381.567 887.961 381.824 886.59 381.824C885.196 381.824 883.96 381.567 882.883 381.053C881.83 380.514 880.936 379.694 880.202 378.592C879.468 377.49 878.917 376.069 878.55 374.333C878.183 372.595 877.999 370.501 877.999 368.053V359.057C877.999 356.512 878.171 354.345 878.514 352.558C878.881 350.746 879.419 349.264 880.129 348.113C880.863 346.964 881.757 346.12 882.81 345.581C883.887 345.042 885.123 344.772 886.517 344.772ZM789.664 370.073H779.572L784.602 350.851L789.664 370.073ZM222.723 370.073H212.631L217.66 350.851L222.723 370.073ZM131.083 370.073H120.991L126.021 350.851L131.083 370.073ZM684.332 345.471C685.801 345.471 686.988 345.801 687.894 346.462C688.824 347.099 689.496 348.028 689.912 349.252C690.353 350.452 690.573 351.897 690.573 353.586C690.573 355.177 690.327 356.573 689.838 357.771C689.373 358.946 688.653 359.864 687.674 360.525C686.719 361.162 685.507 361.48 684.038 361.48H677.944V345.471H684.332Z" fill="white"/>
</g>
<defs>
<clipPath id="clip0_47_2780">
<rect width="1273" height="411" fill="white"/>
</clipPath>
</defs>
</svg>
